<?xml version="1.0" encoding="UTF-8"?>
<svg width="8px" height="6px" viewBox="0 0 8 6" version="1.1"
    xmlns="http://www.w3.org/2000/svg"
    xmlns:xlink="http://www.w3.org/1999/xlink">
    <defs>
        <path d="M2,0 L225,0 C226.104569,-2.02906125e-16 227,0.8954305 227,2 L227,38 C227,39.1045695 226.104569,40 225,40 L2,40 C0.8954305,40 1.3527075e-16,39.1045695 0,38 L0,2 C-1.3527075e-16,0.8954305 0.8954305,2.02906125e-16 2,0 Z" id="path-1"></path>
    </defs>
    <g id="Symbols" stroke="none" stroke-width="1" fill="none" fill-rule="evenodd">
        <g id="input/dropdown/filled" transform="translate(-207.000000, -17.000000)">
            <g id="Rectangle-5">
                <mask id="mask-2" fill="white">
                    <use xlink:href="#path-1"></use>
                </mask>
                <path stroke="#CACDCE" d="M2,0.5 C1.17157288,0.5 0.5,1.17157288 0.5,2 L0.5,38 C0.5,38.8284271 1.17157288,39.5 2,39.5 L225,39.5 C225.828427,39.5 226.5,38.8284271 226.5,38 L226.5,2 C226.5,1.17157288 225.828427,0.5 225,0.5 L2,0.5 Z"></path>
            </g>
            <g id="font/arrow-bottom-alt" transform="translate(203.000000, 12.000000)" fill="#009EB0">
                <polygon id="Triangle" transform="translate(8.000000, 8.000000) scale(1, -1) translate(-8.000000, -8.000000) " points="8 5.6 11.6 10.4 4.4 10.4"></polygon>
            </g>
        </g>
    </g>
</svg>
