<?xml version="1.0" encoding="UTF-8"?>
<svg width="439px" height="439px" viewBox="0 0 439 439" version="1.1" xmlns="http://www.w3.org/2000/svg" xmlns:xlink="http://www.w3.org/1999/xlink">
    <title>logo.color</title>
    <g id="Page-1" stroke="none" stroke-width="1" fill="none" fill-rule="evenodd">
        <g id="Custom-Preset-2" transform="translate(-31.000000, -33.000000)" fill-rule="nonzero">
            <g id="logo.color" transform="translate(31.000000, 33.000000)">
                <path d="M248.342013,439 C248.115864,314.259828 124.728313,190.865751 0,190.650376 L0,126 C160.465745,126.021538 312.97308,278.529012 313,439 L248.342013,439 Z" id="Fill-5" fill="#D81D15"></path>
                <path d="M128.325525,439 C128.212413,382.210582 56.7887907,310.776777 0,310.669058 L0,246 C92.5706224,246.010772 192.973071,346.480215 192.973071,439 L193,439 L128.325525,439 Z" id="Fill-7" fill="#1A2F52"></path>
                <path d="M374.764184,439 C374.73744,335.407256 332.867545,241.930384 264.988777,174.007994 C197.077918,106.139099 103.586133,64.2472948 0,64.2312464 L0,0 C242.457032,0.0267474097 438.973256,196.534669 439,439 L374.764184,439 Z" id="Fill-9" fill="#4DA8D6"></path>
            </g>
        </g>
    </g>
</svg>