<svg width="18px" height="19px" viewBox="0 0 18 19" version="1.1" xmlns="http://www.w3.org/2000/svg" xmlns:xlink="http://www.w3.org/1999/xlink">
    <g id="Icons" stroke="none" stroke-width="1" fill="none" fill-rule="evenodd">
        <g id="x/Icons/calendar" transform="translate(-3.000000, -2.000000)" fill="#B0C0C4" fill-rule="nonzero">
            <path d="M16,2 C16.5128358,2 16.9355072,2.38604019 16.9932723,2.88337887 L17,3 L17,4 L18,4 C19.5976809,4 20.9036609,5.24891996 20.9949073,6.82372721 L21,7 L21,18 C21,19.6568542 19.6568542,21 18,21 L6,21 C4.34314575,21 3,19.6568542 3,18 L3,7 C3,5.34314575 4.34314575,4 6,4 L7,4 L7,3 C7,2.44771525 7.44771525,2 8,2 C8.51283584,2 8.93550716,2.38604019 8.99327227,2.88337887 L9,3 L9,4 L11,4 L11,3 C11,2.44771525 11.4477153,2 12,2 C12.5128358,2 12.9355072,2.38604019 12.9932723,2.88337887 L13,3 L13,4 L15,4 L15,3 C15,2.44771525 15.4477153,2 16,2 Z M7,6 L6,6 C5.44771525,6 5,6.44771525 5,7 L5,18 C5,18.5522847 5.44771525,19 6,19 L18,19 C18.5522847,19 19,18.5522847 19,18 L19,7 C19,6.44771525 18.5522847,6 18,6 L17,6 L17,7 C17,7.55228475 16.5522847,8 16,8 C15.4871642,8 15.0644928,7.61395981 15.0067277,7.11662113 L15,7 L15,6 L13,6 L13,7 C13,7.55228475 12.5522847,8 12,8 C11.4871642,8 11.0644928,7.61395981 11.0067277,7.11662113 L11,7 L11,6 L9,6 L9,7 C9,7.55228475 8.55228475,8 8,8 C7.48716416,8 7.06449284,7.61395981 7.00672773,7.11662113 L7,7 L7,6 Z M16,15 C16.5522847,15 17,15.4477153 17,16 C17,16.5128358 16.6139598,16.9355072 16.1166211,16.9932723 L16,17 L14,17 C13.4477153,17 13,16.5522847 13,16 C13,15.4871642 13.3860402,15.0644928 13.8833789,15.0067277 L14,15 L16,15 Z M10,15 C10.5522847,15 11,15.4477153 11,16 C11,16.5128358 10.6139598,16.9355072 10.1166211,16.9932723 L10,17 L8,17 C7.44771525,17 7,16.5522847 7,16 C7,15.4871642 7.38604019,15.0644928 7.88337887,15.0067277 L8,15 L10,15 Z M10,11 C10.5522847,11 11,11.4477153 11,12 C11,12.5128358 10.6139598,12.9355072 10.1166211,12.9932723 L10,13 L8,13 C7.44771525,13 7,12.5522847 7,12 C7,11.4871642 7.38604019,11.0644928 7.88337887,11.0067277 L8,11 L10,11 Z M16,11 C16.5522847,11 17,11.4477153 17,12 C17,12.5128358 16.6139598,12.9355072 16.1166211,12.9932723 L16,13 L14,13 C13.4477153,13 13,12.5522847 13,12 C13,11.4871642 13.3860402,11.0644928 13.8833789,11.0067277 L14,11 L16,11 Z" id="Combined-Shape"></path>
        </g>
    </g>
</svg>