<?xml version="1.0" encoding="UTF-8"?>
<svg width="24px" height="24px" viewBox="0 0 24 24" version="1.1" xmlns="http://www.w3.org/2000/svg" xmlns:xlink="http://www.w3.org/1999/xlink">
    <g id="icon/draggable/lightgrey" stroke="none" stroke-width="1" fill="none" fill-rule="evenodd">
        <path d="M5.5,13 C6.32842712,13 7,13.6715729 7,14.5 C7,15.3284271 6.32842712,16 5.5,16 C4.67157288,16 4,15.3284271 4,14.5 C4,13.6715729 4.67157288,13 5.5,13 Z M18.5,13 C19.3284271,13 20,13.6715729 20,14.5 C20,15.3284271 19.3284271,16 18.5,16 C17.6715729,16 17,15.3284271 17,14.5 C17,13.6715729 17.6715729,13 18.5,13 Z M12,13 C12.8284271,13 13.5,13.6715729 13.5,14.5 C13.5,15.3284271 12.8284271,16 12,16 C11.1715729,16 10.5,15.3284271 10.5,14.5 C10.5,13.6715729 11.1715729,13 12,13 Z M5.5,8 C6.32842712,8 7,8.67157288 7,9.5 C7,10.3284271 6.32842712,11 5.5,11 C4.67157288,11 4,10.3284271 4,9.5 C4,8.67157288 4.67157288,8 5.5,8 Z M18.5,8 C19.3284271,8 20,8.67157288 20,9.5 C20,10.3284271 19.3284271,11 18.5,11 C17.6715729,11 17,10.3284271 17,9.5 C17,8.67157288 17.6715729,8 18.5,8 Z M12,8 C12.8284271,8 13.5,8.67157288 13.5,9.5 C13.5,10.3284271 12.8284271,11 12,11 C11.1715729,11 10.5,10.3284271 10.5,9.5 C10.5,8.67157288 11.1715729,8 12,8 Z" id="Shape" fill="#A2A8AB"></path>
    </g>
</svg>
