<?xml version="1.0" encoding="UTF-8"?>
<svg width="24px" height="24px" viewBox="0 0 24 24" version="1.1" xmlns="http://www.w3.org/2000/svg" xmlns:xlink="http://www.w3.org/1999/xlink">
    <g id="x/Icons/home" stroke="none" stroke-width="1" fill="none" fill-rule="evenodd">
        <g id="majesticons:home-line">
            <rect id="ViewBox" x="0" y="0" width="24" height="24"></rect>
            <path d="M20,19 L20,10.5 C20,10.1852427 19.8518058,9.88885438 19.6,9.7 L12.6,4.45 C12.2444444,4.18333333 11.7555556,4.18333333 11.4,4.45 L4.4,9.7 C4.14819416,9.88885438 4,10.1852427 4,10.5 L4,19 C4,19.5522847 4.44771525,20 5,20 L9,20 C9.55228475,20 10,19.5522847 10,19 L10,16 C10,15.4477153 10.4477153,15 11,15 L13,15 C13.5522847,15 14,15.4477153 14,16 L14,19 C14,19.5522847 14.4477153,20 15,20 L19,20 C19.5522847,20 20,19.5522847 20,19 Z" id="Path" stroke="#000000" stroke-width="2" stroke-linecap="round" stroke-linejoin="round"></path>
        </g>
    </g>
</svg>
