<?xml version="1.0" encoding="UTF-8"?>
<svg width="24px" height="24px" viewBox="0 0 24 24" version="1.1" xmlns="http://www.w3.org/2000/svg" xmlns:xlink="http://www.w3.org/1999/xlink">
    <g id="icon/pin" stroke="none" stroke-width="1" fill="none" fill-rule="evenodd">
        <g id="ph:push-pin">
            <rect id="ViewBox" x="0" y="0" width="24" height="24"></rect>
            <path d="M22.06125,7.6284375 L16.3715625,1.9396875 C16.0902481,1.65830886 15.7086653,1.50022658 15.3107812,1.50022658 C14.9128972,1.50022658 14.5313144,1.65830886 14.25,1.9396875 L9.2221875,6.9834375 C8.2228125,6.6703125 5.9409375,6.2925 3.5596875,8.2153125 C3.22774089,8.48223268 3.02492866,8.87769299 3.00185586,9.30301942 C2.97878306,9.72834586 3.13762575,10.143425 3.43875,10.4446875 L7.96875,14.9728125 L3.969375,18.969375 C3.67631892,19.2624311 3.67631893,19.7375689 3.96937502,20.030625 C4.26243111,20.3236811 4.7375689,20.3236811 5.030625,20.030625 L9.0271875,16.03125 L13.554375,20.5584375 C13.8354596,20.8407019 14.2172765,20.9995674 14.615625,21 L14.7215625,21 C15.1542251,20.9700229 15.5524863,20.7534427 15.8128125,20.4065625 C17.6540625,17.9596875 17.476875,15.9703125 17.049375,14.7815625 L22.0621875,9.75 C22.3434419,9.46856127 22.5011799,9.08690864 22.5011799,8.68902456 C22.5011799,8.29114047 22.342753,7.90962755 22.06125,7.6284375 Z M21,8.6896875 L15.6309375,14.0765625 C15.4035664,14.3047845 15.3473391,14.6527144 15.49125,14.9409375 C16.378125,16.715625 15.3225,18.55875 14.615625,19.4990625 L4.5,9.3825 C5.6325,8.469375 6.71625,8.2284375 7.545,8.2284375 C8.07086827,8.2212604 8.59239947,8.32441691 9.0759375,8.53125 C9.36527468,8.67605437 9.7148578,8.61898729 9.943125,8.3896875 L15.31125,3 L21,8.68875 L21,8.6896875 Z" id="Shape" fill="currentColor" fill-rule="nonzero"></path>
        </g>
    </g>
</svg>
