<?xml version="1.0" encoding="UTF-8"?>
<svg width="24px" height="24px" viewBox="0 0 24 24" version="1.1" xmlns="http://www.w3.org/2000/svg" xmlns:xlink="http://www.w3.org/1999/xlink">
    <g id="Icon/unpin" stroke="none" stroke-width="1" fill="none" fill-rule="evenodd">
        <g id="ph:push-pin-slash">
            <rect id="ViewBox" x="0" y="0" width="24" height="24"></rect>
            <path d="M5.055,3.245625 C4.87575955,3.04357892 4.60172518,2.95351319 4.33756963,3.00983017 C4.07341408,3.06614715 3.85994155,3.26014753 3.778692,3.5177291 C3.69744245,3.77531067 3.76096654,4.05668473 3.945,4.254375 L6.3159375,6.8625 C5.30391864,7.08895239 4.36018825,7.55262381 3.5625,8.2153125 C3.23055339,8.48223268 3.02774116,8.87769299 3.00466836,9.30301942 C2.98159556,9.72834586 3.14043825,10.143425 3.4415625,10.4446875 L7.96875,14.9728125 L3.969375,18.969375 C3.67631892,19.2624311 3.67631893,19.7375689 3.96937502,20.030625 C4.26243111,20.3236811 4.7375689,20.3236811 5.030625,20.030625 L9.0271875,16.03125 L13.554375,20.5584375 C13.8354596,20.8407019 14.2172765,20.9995674 14.615625,21 L14.7215625,21 C15.1542251,20.9700229 15.5524863,20.7534427 15.8128125,20.4065625 C16.2558762,19.8230901 16.6208378,19.1842499 16.8984375,18.50625 L18.9459375,20.75625 C19.1251779,20.9582961 19.3992123,21.0483618 19.6633679,20.9920448 C19.9275234,20.9357279 20.140996,20.7417275 20.2222455,20.4841459 C20.303495,20.2265643 20.239971,19.9451903 20.0559375,19.7475 L5.055,3.245625 Z M14.615625,19.5 L4.5,9.3825 C5.4590625,8.6090625 6.4875,8.22375 7.561875,8.2321875 L15.733125,17.2209375 C15.5240625,18.14625 15.0225,18.9590625 14.615625,19.5 Z M22.06125,9.75 L17.87625,13.9490625 C17.6870109,14.138804 17.4109208,14.2131746 17.1519803,14.1441594 C16.8930397,14.0751443 16.6905879,13.8732286 16.6208865,13.6144719 C16.5511851,13.3557153 16.6248234,13.079429 16.8140625,12.8896875 L21,8.690625 L15.31125,3 L11.446875,6.8765625 C11.1525019,7.15726045 10.688036,7.15214946 10.399911,6.86504171 C10.111786,6.57793395 10.1050324,6.113489 10.3846875,5.818125 L14.25,1.940625 C14.5313144,1.65924636 14.9128972,1.50116408 15.3107813,1.50116408 C15.7086653,1.50116408 16.0902481,1.65924636 16.3715625,1.940625 L22.06125,7.629375 C22.646573,8.21508181 22.646573,9.16429319 22.06125,9.75 Z" id="Shape" fill="currentColor" fill-rule="nonzero"></path>
        </g>
    </g>
</svg>
