<?xml version="1.0" encoding="UTF-8"?>
<svg viewBox="0 0 40 40" version="1.1" xmlns="http://www.w3.org/2000/svg" xmlns:xlink="http://www.w3.org/1999/xlink">

    <g id="font/admin" stroke="none" stroke-width="1" fill="none" fill-rule="evenodd">
        <path d="M20,3 C25.4292399,3 29.8479317,7.32667079 29.9961582,12.7200952 L30,13 L30,17 L33,17 L33,37 L7,37 L7,17 L10,17 L10,13 C10,7.4771525 14.4771525,3 20,3 Z M31,19 L9,19 L9,35 L31,35 L31,19 Z M24.8033009,22.5251263 L26.2175144,23.9393398 L18.4393398,31.7175144 L13.7824856,27.0606602 L15.1966991,25.6464466 L18.4380011,28.8891628 L24.8033009,22.5251263 Z M20,5 C15.6650857,5 12.1354571,8.44783777 12.0038068,12.7508207 L12,13 L12,17 L28,17 L28,13 C28,8.581722 24.418278,5 20,5 Z" id="Shape" fill="#191A1A" fill-rule="nonzero"></path>
    </g>
</svg>
