<?xml version="1.0" encoding="UTF-8"?>
<svg viewBox="0 0 40 40" version="1.1" xmlns="http://www.w3.org/2000/svg" xmlns:xlink="http://www.w3.org/1999/xlink">

    <g id="font/agression" stroke="none" stroke-width="1" fill="none" fill-rule="evenodd">
        <path d="M35,7 L34.9570393,29.8786377 L13.4302976,29.8786377 L5,34 L5,29.8786377 L5.04296066,7 L35,7 Z M20.2053952,22.5157475 C19.6194577,22.5157475 19.1305661,22.6896977 18.7387204,23.0375981 C18.3468747,23.3854985 18.1509518,23.8304448 18.1509518,24.372437 C18.1509518,24.9144292 18.3468747,25.3593754 18.7387204,25.7072758 C19.1305661,26.0551762 19.6194577,26.2291264 20.2053952,26.2291264 C20.7913327,26.2291264 21.2802243,26.0551762 21.67207,25.7072758 C22.0639157,25.3593754 22.2598385,24.9144292 22.2598385,24.372437 C22.2598385,23.8304448 22.0639157,23.3854985 21.67207,23.0375981 C21.2802243,22.6896977 20.7913327,22.5157475 20.2053952,22.5157475 Z M22.2049069,10.0352788 L18.2608151,10.0352788 L18.7332272,20.9666752 L21.7324948,20.9666752 L22.2049069,10.0352788 Z" id="Shape" fill="#191A1A"></path>
    </g>
</svg>
