<?xml version="1.0" encoding="UTF-8"?>
<svg viewBox="0 0 40 40" version="1.1" xmlns="http://www.w3.org/2000/svg" xmlns:xlink="http://www.w3.org/1999/xlink">

    <g id="font/attach" stroke="none" stroke-width="1" fill="none" fill-rule="evenodd">
        <path d="M20.3923113,4 L22.4595888,6.0826566 L6.99900481,21.7579676 C4.22555695,24.569935 4.22555695,29.1309784 6.99900481,31.9429457 C9.70830987,34.6898795 14.0617039,34.7509224 16.8440795,32.1260747 L17.0313148,31.9429457 L33.8362974,14.9045642 C35.496009,13.2218014 35.496009,10.4915604 33.8362974,8.80879764 C32.2326098,7.1828369 29.6664723,7.13038656 28.0006912,8.65144661 L27.8371832,8.80879764 L13.7209978,23.1210381 C13.1750225,23.6745963 13.1750225,24.5740349 13.7209978,25.1275931 C14.2304425,25.6441133 15.034932,25.6763958 15.5812572,25.2244407 L15.6869162,25.1275931 L28.458703,12.1784231 L30.5259804,14.2610797 L17.7541937,27.2102497 C16.0701287,28.9177041 13.3377853,28.9177041 11.6537204,27.2102497 C10.026465,25.5603939 9.97397287,22.9203366 11.496244,21.2065968 L11.6537204,21.0383816 L25.7699057,6.72614105 C28.5677069,3.8894821 33.1057737,3.8894821 35.9035749,6.72614105 C38.6366921,9.49721763 38.697428,13.9499019 36.0857827,16.7957166 L35.9035749,16.9872208 L19.0985923,34.0256023 C15.1870548,37.9914659 8.8432648,37.9914659 4.93172733,34.0256023 C1.09382973,30.1344014 1.02404978,23.8713495 4.72238747,19.8938995 L4.93172733,19.675311 L20.3923113,4 Z" id="Path-8" fill="#000000" fill-rule="nonzero"></path>
    </g>
</svg>
