<?xml version="1.0" encoding="UTF-8"?>
<svg viewBox="0 0 40 40" version="1.1" xmlns="http://www.w3.org/2000/svg" xmlns:xlink="http://www.w3.org/1999/xlink">

    <g id="font/bell" stroke="none" stroke-width="1" fill="none" fill-rule="evenodd">
        <path d="M25.35115,31.3333333 C25.35115,34.0947571 23.1125737,36.3333333 20.35115,36.3333333 C17.6883485,36.3333333 15.5117152,34.2518001 15.3596378,31.6271213 L15.35115,31.3333333 L25.35115,31.3333333 Z M22.0178167,3 L22.0180359,6.47262032 C26.9833915,7.28952553 30.7712488,11.6014911 30.7712488,16.7981581 L30.7712488,25.3382952 L33.6666667,29.6666667 L7,29.6666667 L9.84159916,25.3382952 L9.84159916,16.7981581 C9.84159916,11.57069 13.6744914,7.23844183 18.6832259,6.45846361 L18.6844833,3 L22.0178167,3 Z M20.306424,9.66666667 C16.4836516,9.66666667 13.3633939,12.6744898 13.1831562,16.4526309 L13.1749325,16.7981581 L13.1744833,26.3333333 L27.4379154,26.3333333 L27.4379154,16.7981581 C27.4379154,12.9753857 24.4300923,9.85512809 20.6519512,9.67489042 L20.306424,9.66666667 Z" id="Shape" fill="#191A1A"></path>
    </g>
</svg>
