<?xml version="1.0" encoding="UTF-8"?>
<svg viewBox="0 0 40 40" version="1.1" xmlns="http://www.w3.org/2000/svg" xmlns:xlink="http://www.w3.org/1999/xlink">

    <g id="font/bell-filled" stroke="none" stroke-width="1" fill="none" fill-rule="evenodd">
        <g id="Group" transform="translate(3.000000, 3.000000)" fill="#191A1A">
            <path d="M21.6166667,28.9166667 C21.6166667,31.6780904 19.3780904,33.9166667 16.6166667,33.9166667 C13.9538652,33.9166667 11.7772319,31.8351334 11.6251545,29.2104546 L11.6166667,28.9166667 L21.6166667,28.9166667 Z M18.2833333,0.583333333 L18.2835525,4.05595366 C23.2489082,4.87285887 27.0367654,9.18482443 27.0367654,14.3814915 L27.0367654,22.9216285 L29.9321833,27.25 L3.26551667,27.25 L6.10711582,22.9216285 L6.10711582,14.3814915 C6.10711582,9.15402334 9.94000807,4.82177517 14.9487426,4.04179695 L14.95,0.583333333 L18.2833333,0.583333333 Z" id="Shape"></path>
            <g id="Shape-2">
                <path d="M9.25,2.38333333 L6.86666667,-1.50990331e-13 C2.86666667,3.05 0.233333333,7.75 4.26325641e-14,13.0833333 L3.33333333,13.0833333 C3.58333333,8.66666667 5.85,4.8 9.25,2.38333333 L9.25,2.38333333 Z M29.9,13.0833333 L33.2333333,13.0833333 C32.9833333,7.75 30.35,3.05 26.3666667,-1.50990331e-13 L24,2.38333333 C27.3666667,4.8 29.65,8.66666667 29.9,13.0833333 Z" id="Shape"></path>
            </g>
        </g>
    </g>
</svg>
