<?xml version="1.0" encoding="UTF-8"?>
<svg viewBox="0 0 40 40" version="1.1" xmlns="http://www.w3.org/2000/svg" xmlns:xlink="http://www.w3.org/1999/xlink">

    <g id="font/bold" stroke="none" stroke-width="1" fill="none" fill-rule="evenodd">
        <path d="M20.8676471,34 C28.9558824,34 33,31.3722628 33,26.1167883 C33,24.5520902 32.5894608,23.2352356 31.7683824,22.1662243 C30.9473039,21.097213 29.6973039,20.2581287 28.0183824,19.6489715 C30.6286765,18.5500995 31.9338235,16.6927671 31.9338235,14.0769741 C31.9338235,11.7000664 31.0238971,9.92634373 29.2040441,8.75580624 C27.3841912,7.58526875 24.6053922,7 20.8676471,7 L20.8676471,7 L8,7 L8,11.5865959 L11.4191176,11.5865959 L11.4191176,29.4134041 L8,29.4134041 L8,34 L20.8676471,34 Z M20.8308824,17.6781685 L18.6066176,17.6781685 L18.6066176,11.5865959 L20.2977941,11.5865959 C21.7071078,11.5865959 22.8008578,11.7986065 23.5790441,12.2226277 C24.3572304,12.646649 24.7463235,13.384207 24.7463235,14.4353019 C24.7463235,15.6177837 24.4215686,16.4538819 23.7720588,16.9435965 C23.122549,17.4333112 22.1421569,17.6781685 20.8308824,17.6781685 L20.8308824,17.6781685 Z M21.4375,29.4134041 L18.6066176,29.4134041 L18.6066176,22.2289317 L20.4264706,22.2289317 C22.3259804,22.2289317 23.6648284,22.5155939 24.4430147,23.0889184 C25.221201,23.6622429 25.6102941,24.6058394 25.6102941,25.919708 C25.6102941,27.1260783 25.2334559,28.0099536 24.4797794,28.5713338 C23.7261029,29.132714 22.7120098,29.4134041 21.4375,29.4134041 L21.4375,29.4134041 Z" id="B-Copy" fill="#191A1A"></path>
    </g>
</svg>
