<?xml version="1.0" encoding="UTF-8"?>
<svg viewBox="0 0 40 40" version="1.1" xmlns="http://www.w3.org/2000/svg" xmlns:xlink="http://www.w3.org/1999/xlink">

    <g id="font/calendar" stroke="none" stroke-width="1" fill="none" fill-rule="evenodd">
        <path d="M13,3 L13,4.5 L27,4.5 L27,3 L30,3 L30,4.5 L36.5,4.5 L36.5,36.5 L3.5,36.5 L3.5,4.5 L10,4.5 L10,3 L13,3 Z M33.5,15.5 L6.5,15.5 L6.5,33.5 L33.5,33.5 L33.5,15.5 Z M10,7.5 L6.5,7.5 L6.5,12.5 L33.5,12.5 L33.5,7.5 L30,7.5 L30,10 L27,10 L27,7.5 L13,7.5 L13,10 L10,10 L10,7.5 Z" id="Shape" fill="#000000" fill-rule="nonzero"></path>
        <rect id="Rectangle" fill="#000000" x="10" y="20" width="3" height="3"></rect>
        <rect id="Rectangle" fill="#000000" x="18.5" y="20" width="3" height="3"></rect>
        <rect id="Rectangle" fill="#000000" x="27" y="20" width="3" height="3"></rect>
        <rect id="Rectangle" fill="#000000" x="10" y="27" width="3" height="3"></rect>
        <rect id="Rectangle" fill="#000000" x="18.5" y="27" width="3" height="3"></rect>
        <rect id="Rectangle" fill="#000000" x="27" y="27" width="3" height="3"></rect>
    </g>
</svg>
