<?xml version="1.0" encoding="UTF-8"?>
<svg viewBox="0 0 40 40" version="1.1" xmlns="http://www.w3.org/2000/svg" xmlns:xlink="http://www.w3.org/1999/xlink">

    <g id="font/conflict" stroke="none" stroke-width="1" fill="none" fill-rule="evenodd">
        <path d="M20,1 C30.4934102,1 39,9.50658975 39,20 C39,30.4934102 30.4934102,39 20,39 C9.50658975,39 1,30.4934102 1,20 C1,9.50658975 9.50658975,1 20,1 Z M20,4 C11.163444,4 4,11.163444 4,20 C4,28.836556 11.163444,36 20,36 C28.836556,36 36,28.836556 36,20 C36,11.163444 28.836556,4 20,4 Z M22.7660623,8.47499272 L21.5194667,18.621703 L25.7708987,18.6219073 L17.2339377,31.5250073 L18.4789317,21.3776977 L14.2372668,21.3780927 L22.7660623,8.47499272 Z" id="Shape" fill="#191A1A"></path>
    </g>
</svg>
