<?xml version="1.0" encoding="UTF-8"?>
<svg viewBox="0 0 40 40" version="1.1" xmlns="http://www.w3.org/2000/svg" xmlns:xlink="http://www.w3.org/1999/xlink">

    <g id="font/contentieux" stroke="none" stroke-width="1" fill="none" fill-rule="evenodd">
        <path d="M22,20 L22,18 L24.875,18 L29.875,5.999 L22.8289758,6.00090072 C22.5276396,6.85258914 21.8525891,7.52763961 21.0009007,7.82897577 L21,33 L33,33 L33,37 L31,37 L31,35 L9,35 L9,37 L7,37 L7,33 L19,33 L19.0000889,7.82932572 C18.1476039,7.52804588 17.4719541,6.8523961 17.1706743,5.99991107 L10.125,6 L15.125,18 L18,18 L18,20 L17,20 C17,21.5976809 15.75108,22.9036609 14.1762728,22.9949073 L14,23 L6,23 C4.40231912,23 3.09633912,21.75108 3.00509269,20.1762728 L3,20 L2,20 L2,18 L4.875,18 L9.875,6 L7,6 L7,4 L17.1710242,3.99909928 C17.5831148,2.83437743 18.6941178,2 20,2 C21.3062521,2 22.4175144,2.8348501 22.8293257,4.00008893 L33,4 L33,6 L30.125,5.999 L35.125,18 L38,18 L38,20 L37,20 C37,21.5976809 35.75108,22.9036609 34.1762728,22.9949073 L34,23 L26,23 C24.4023191,23 23.0963391,21.75108 23.0050927,20.1762728 L23,20 L22,20 Z M15,20 L5,20 C5,20.5128358 5.38604019,20.9355072 5.88337887,20.9932723 L6,21 L14,21 C14.5128358,21 14.9355072,20.6139598 14.9932723,20.1166211 L15,20 Z M25,20 C25,20.5128358 25.3860402,20.9355072 25.8833789,20.9932723 L26,21 L34,21 C34.5128358,21 34.9355072,20.6139598 34.9932723,20.1166211 L35,20 L25,20 Z M30,8.3 L25.958,18 L34.042,18 L30,8.3 Z M10,8.3 L5.958,18 L14.042,18 L10,8.3 Z M20,4 C19.4477153,4 19,4.44771525 19,5 C19,5.55228475 19.4477153,6 20,6 C20.5522847,6 21,5.55228475 21,5 C21,4.44771525 20.5522847,4 20,4 Z" id="Shape" fill="#000000" fill-rule="nonzero"></path>
    </g>
</svg>
