<?xml version="1.0" encoding="UTF-8"?>
<svg viewBox="0 0 40 40" version="1.1" xmlns="http://www.w3.org/2000/svg" xmlns:xlink="http://www.w3.org/1999/xlink">

    <g id="font/empty" stroke="none" stroke-width="1" fill="none" fill-rule="evenodd">
        <path d="M20,1 C30.4934102,1 39,9.50658975 39,20 C39,30.4934102 30.4934102,39 20,39 C9.50658975,39 1,30.4934102 1,20 C1,9.50658975 9.50658975,1 20,1 Z M4,20 C4,28.836556 11.163444,36 20,36 C24.0060967,36 27.6683174,34.5276921 30.4750819,32.0946565 L7.90534351,9.52491812 C5.47230792,12.3316826 4,15.9939033 4,20 Z M20,4 C16.2494949,4 12.8003864,5.29043261 10.0724518,7.45152069 L32.5484793,29.9275482 C34.7095674,27.1996136 36,23.7505051 36,20 C36,11.163444 28.836556,4 20,4 Z" id="Combined-Shape" fill="#191A1A"></path>
    </g>
</svg>
