<?xml version="1.0" encoding="UTF-8"?>
<svg viewBox="0 0 40 40" version="1.1" xmlns="http://www.w3.org/2000/svg" xmlns:xlink="http://www.w3.org/1999/xlink">

    <g id="font/enrolement" stroke="none" stroke-width="1" fill="none" fill-rule="evenodd">
        <path d="M26.4142136,3 L34,10.5857864 L34.001093,21.9360629 C36.9639377,23.4089742 39,26.4667132 39,30 C39,34.9705627 34.9705627,39 30,39 C27.8571456,39 25.889204,38.251109 24.3436224,37.0007741 L6,37 L6,3 L26.4142136,3 Z M30,23 C26.1340068,23 23,26.1340068 23,30 C23,33.8659932 26.1340068,37 30,37 C33.8659932,37 37,33.8659932 37,30 C37,26.1340068 33.8659932,23 30,23 Z M25,12 L25,5 L8,5 L8,35 L22.5163591,35.00121 C21.5585866,33.570872 21,31.8506685 21,30 C21,25.0294373 25.0294373,21 30,21 C30.6877129,21 31.35741,21.0771343 32.0009121,21.2232234 L32,12 L25,12 Z M32.9801572,26.5859257 L34.4140743,27.9801572 L28.9862422,33.562488 L25.586018,30.036907 L27.025593,28.648518 L28.9920878,30.687512 L32.9801572,26.5859257 Z M27,6.415 L27,10 L30.586,10 L27,6.415 Z" id="Shape" fill="#000000" fill-rule="nonzero"></path>
    </g>
</svg>
