<?xml version="1.0" encoding="UTF-8"?>
<svg viewBox="0 0 40 40" version="1.1" xmlns="http://www.w3.org/2000/svg" xmlns:xlink="http://www.w3.org/1999/xlink">

    <g id="icon/entite_implique" stroke="none" stroke-width="1" fill="none" fill-rule="evenodd">
        <path d="M31.2,4 C33.7562894,4 35.8458574,5.99827194 35.9918517,8.51796354 L36,8.8 L36,31.2 C36,33.7562894 34.0017281,35.8458574 31.4820365,35.9918517 L31.2,36 L8.8,36 C6.24371059,36 4.15414259,34.0017281 4.00814831,31.4820365 L4,31.2 L4,8.8 C4,6.24371059 5.99827194,4.15414259 8.51796354,4.00814831 L8.8,4 L31.2,4 Z M31.2,7.2 L8.8,7.2 C7.97946266,7.2 7.30318854,7.8176643 7.21076437,8.6134062 L7.2,8.8 L7.2,31.2 C7.2,32.0205373 7.8176643,32.6968115 8.6134062,32.7892356 L8.8,32.8 L31.2,32.8 C32.0205373,32.8 32.6968115,32.1823357 32.7892356,31.3865938 L32.8,31.2 L32.8,8.8 C32.8,7.97946266 32.1823357,7.30318854 31.3865938,7.21076437 L31.2,7.2 Z M29.6,24.8 L29.7865938,24.8107644 C30.5823357,24.9031885 31.2,25.5794627 31.2,26.4 C31.2,27.2205373 30.5823357,27.8968115 29.7865938,27.9892356 L29.6,28 L26.4,28 L26.2134062,27.9892356 C25.4176643,27.8968115 24.8,27.2205373 24.8,26.4 C24.8,25.5794627 25.4176643,24.9031885 26.2134062,24.8107644 L26.4,24.8 L29.6,24.8 Z M21.6,24.8 L21.7865938,24.8107644 C22.5823357,24.9031885 23.2,25.5794627 23.2,26.4 C23.2,27.2205373 22.5823357,27.8968115 21.7865938,27.9892356 L21.6,28 L10.4,28 L10.2134062,27.9892356 C9.4176643,27.8968115 8.8,27.2205373 8.8,26.4 C8.8,25.5794627 9.4176643,24.9031885 10.2134062,24.8107644 L10.4,24.8 L21.6,24.8 Z M29.6,18.4 L29.7865938,18.4107644 C30.5823357,18.5031885 31.2,19.1794627 31.2,20 C31.2,20.8205373 30.5823357,21.4968115 29.7865938,21.5892356 L29.6,21.6 L26.4,21.6 L26.2134062,21.5892356 C25.4176643,21.4968115 24.8,20.8205373 24.8,20 C24.8,19.1794627 25.4176643,18.5031885 26.2134062,18.4107644 L26.4,18.4 L29.6,18.4 Z M21.6,18.4 L21.7865938,18.4107644 C22.5823357,18.5031885 23.2,19.1794627 23.2,20 C23.2,20.8205373 22.5823357,21.4968115 21.7865938,21.5892356 L21.6,21.6 L10.4,21.6 L10.2134062,21.5892356 C9.4176643,21.4968115 8.8,20.8205373 8.8,20 C8.8,19.1794627 9.4176643,18.5031885 10.2134062,18.4107644 L10.4,18.4 L21.6,18.4 Z M29.6,12 L29.7865938,12.0107644 C30.5823357,12.1031885 31.2,12.7794627 31.2,13.6 C31.2,14.4205373 30.5823357,15.0968115 29.7865938,15.1892356 L29.6,15.2 L26.4,15.2 L26.2134062,15.1892356 C25.4176643,15.0968115 24.8,14.4205373 24.8,13.6 C24.8,12.7794627 25.4176643,12.1031885 26.2134062,12.0107644 L26.4,12 L29.6,12 Z M21.6,12 L21.7865938,12.0107644 C22.5823357,12.1031885 23.2,12.7794627 23.2,13.6 C23.2,14.4205373 22.5823357,15.0968115 21.7865938,15.1892356 L21.6,15.2 L10.4,15.2 L10.2134062,15.1892356 C9.4176643,15.0968115 8.8,14.4205373 8.8,13.6 C8.8,12.7794627 9.4176643,12.1031885 10.2134062,12.0107644 L10.4,12 L21.6,12 Z" id="Shape" fill="#000000" fill-rule="nonzero"></path>
    </g>
</svg>
