<?xml version="1.0" encoding="UTF-8"?>
<svg viewBox="0 0 40 40" version="1.1" xmlns="http://www.w3.org/2000/svg" xmlns:xlink="http://www.w3.org/1999/xlink">

    <g id="font/entreprise" stroke="none" stroke-width="1" fill="none" fill-rule="evenodd">
        <path d="M34,4 L34,36.625 L30.7777778,36.625 L30.7777778,7.2625 L8.22222222,7.2625 L8.22222222,36.625 L5,36.625 L5,4 L34,4 Z M24.3333333,30.1 L24.3333333,36.625 L21.1111111,36.625 L21.1111111,33.3625 L17.8888889,33.3625 L17.8888889,36.625 L14.6666667,36.625 L14.6666667,30.1 L24.3333333,30.1 Z M27.5555556,23.575 L27.5555556,26.8375 L21.1111111,26.8375 L21.1111111,23.575 L27.5555556,23.575 Z M17.8888889,23.575 L17.8888889,26.8375 L11.4444444,26.8375 L11.4444444,23.575 L17.8888889,23.575 Z M27.5555556,17.05 L27.5555556,20.3125 L21.1111111,20.3125 L21.1111111,17.05 L27.5555556,17.05 Z M17.8888889,17.05 L17.8888889,20.3125 L11.4444444,20.3125 L11.4444444,17.05 L17.8888889,17.05 Z M27.5555556,10.525 L27.5555556,13.7875 L21.1111111,13.7875 L21.1111111,10.525 L27.5555556,10.525 Z M17.8888889,10.525 L17.8888889,13.7875 L11.4444444,13.7875 L11.4444444,10.525 L17.8888889,10.525 Z" id="Shape" fill="#191A1A"></path>
    </g>
</svg>
