<?xml version="1.0" encoding="UTF-8"?>
<svg viewBox="0 0 40 40" version="1.1" xmlns="http://www.w3.org/2000/svg" xmlns:xlink="http://www.w3.org/1999/xlink">

    <g id="font/error" stroke="none" stroke-width="1" fill="none" fill-rule="evenodd">
        <path d="M20.5,3 C30.1649831,3 38,10.8350169 38,20.5 C38,30.1649831 30.1649831,38 20.5,38 C10.8350169,38 3,30.1649831 3,20.5 C3,10.8350169 10.8350169,3 20.5,3 Z M32.0586203,11.3572286 L11.3562344,32.0578327 C13.8688013,34.0482948 17.0456006,35.2368421 20.5,35.2368421 C28.6389332,35.2368421 35.2368421,28.6389332 35.2368421,20.5 C35.2368421,17.0460562 34.0486083,13.8696392 32.0586203,11.3572286 Z M20.5,5.76315789 C12.3610668,5.76315789 5.76315789,12.3610668 5.76315789,20.5 C5.76315789,24.1891338 7.11872232,27.5616585 9.35892392,30.146647 L30.1476389,9.3597836 C27.5625213,7.11906912 24.1896057,5.76315789 20.5,5.76315789 Z" id="Combined-Shape" fill="#191A1A"></path>
    </g>
</svg>
