<?xml version="1.0" encoding="UTF-8"?>
<svg viewBox="0 0 40 40" version="1.1" xmlns="http://www.w3.org/2000/svg" xmlns:xlink="http://www.w3.org/1999/xlink">

    <g id="font/esigna-alt-2" stroke="none" stroke-width="1" fill="none" fill-rule="evenodd">
        <path d="M15,23.5 L25,23.5 C30.1562447,23.5 34.3530394,27.6078939 34.4962236,32.7295213 L34.5,33 L34.5,38 L31.5,38 L31.5,33 C31.5,29.4881894 28.7150038,26.6268494 25.2331341,26.504103 L25,26.5 L15,26.5 C11.4881894,26.5 8.62684944,29.2849962 8.50410301,32.7668659 L8.5,33 L8.5,38 L5.5,38 L5.5,33 C5.5,27.8437553 9.60789389,23.6469606 14.7295213,23.5037764 L15,23.5 L25,23.5 L15,23.5 Z M16.5,34 L16.5,38 L13.5,38 L13.5,34 L16.5,34 Z M26.5,34 L26.5,38 L23.5,38 L23.5,34 L26.5,34 Z M20,2.5 C24.6944204,2.5 28.5,6.30557963 28.5,11 L28.5,13 C28.5,17.6944204 24.6944204,21.5 20,21.5 C15.3055796,21.5 11.5,17.6944204 11.5,13 L11.5,11 C11.5,6.30557963 15.3055796,2.5 20,2.5 Z M20,5.5 C16.9624339,5.5 14.5,7.96243388 14.5,11 L14.5,13 C14.5,16.0375661 16.9624339,18.5 20,18.5 C23.0375661,18.5 25.5,16.0375661 25.5,13 L25.5,11 C25.5,7.96243388 23.0375661,5.5 20,5.5 Z" id="Shape" fill="#000000" fill-rule="nonzero"></path>
    </g>
</svg>
