<?xml version="1.0" encoding="UTF-8"?>
<svg viewBox="0 0 40 40" version="1.1" xmlns="http://www.w3.org/2000/svg" xmlns:xlink="http://www.w3.org/1999/xlink">

    <g id="font/esigna" stroke="none" stroke-width="1" fill="none" fill-rule="evenodd">
        <path d="M37,8 L37,34 L3,34 L3,8 L37,8 Z M35,10 L5,10 L5,32 L6,32 L6,29 C6,26.790861 7.790861,25 10,25 L18,25 C20.209139,25 22,26.790861 22,29 L22,32 L35,32 L35,10 Z M18,27 L10,27 C8.8954305,27 8,27.8954305 8,29 L8,32 L10,32 L10,30 L12,30 L12,32 L16,32 L16,30 L18,30 L18,32 L20,32 L20,29 C20,27.8954305 19.1045695,27 18,27 Z M14,14 C16.209139,14 18,15.790861 18,18 L18,19 C18,21.209139 16.209139,23 14,23 C11.790861,23 10,21.209139 10,19 L10,18 C10,15.790861 11.790861,14 14,14 Z M32,21 L32,23 L22,23 L22,21 L32,21 Z M14,16 C12.8954305,16 12,16.8954305 12,18 L12,19 C12,20.1045695 12.8954305,21 14,21 C15.1045695,21 16,20.1045695 16,19 L16,18 C16,16.8954305 15.1045695,16 14,16 Z M32,17.5 L32,19.5 L22,19.5 L22,17.5 L32,17.5 Z M32,14 L32,16 L22,16 L22,14 L32,14 Z" id="Shape" fill="#000000" fill-rule="nonzero"></path>
    </g>
</svg>
