<?xml version="1.0" encoding="UTF-8"?>
<svg viewBox="0 0 40 40" version="1.1" xmlns="http://www.w3.org/2000/svg" xmlns:xlink="http://www.w3.org/1999/xlink">

    <g id="font/esigna-alt" stroke="none" stroke-width="1" fill="none" fill-rule="evenodd">
        <path d="M20,3 C29.3888407,3 37,10.6111593 37,20 C37,29.3888407 29.3888407,37 20,37 C10.6111593,37 3,29.3888407 3,20 C3,10.6111593 10.6111593,3 20,3 Z M22.9090909,24 L17.0909091,24 C15.3838471,24 14,25.3838471 14,27.0909091 L14,33.7519182 C14.6445182,34.0334646 15.312529,34.271044 16.0003533,34.4608648 L16,28 L18,28 L18.0003885,34.8678804 C18.654539,34.9550197 19.3220167,35 20,35 C20.6783294,35 21.3461424,34.9549737 22.0006132,34.8677469 L22,28 L24,28 L24.0006509,34.4605876 C24.6884769,34.2707146 25.3564863,34.0330818 26.000887,33.7514814 L26,27.0909091 C26,25.3838471 24.6161529,24 22.9090909,24 Z M20,5 C11.7157288,5 5,11.7157288 5,20 C5,25.3433848 7.79394226,30.0342094 12.0006276,32.6912747 L12,27.0909091 C12,24.2792776 14.2792776,22 17.0909091,22 L22.9090909,22 C25.7207224,22 28,24.2792776 28,27.0909091 L28.0003791,32.6906387 C32.2065035,30.033461 35,25.3429585 35,20 C35,11.7157288 28.2842712,5 20,5 Z M20,10 C22.7614237,10 25,12.2385763 25,15 L25,17.3427734 L24.8177007,17.3425563 C24.2311224,19.4519718 22.2963419,21 20,21 C17.7036581,21 15.7688776,19.4519718 15.1822993,17.3425563 L15,17.3427734 L15,15 C15,12.2385763 17.2385763,10 20,10 Z M20,12 C18.3431458,12 17,13.3431458 17,15 L17,16 C17,17.6568542 18.3431458,19 20,19 C21.5976809,19 22.9036609,17.75108 22.9949073,16.1762728 L23,16 L23,15 C23,13.3431458 21.6568542,12 20,12 Z" id="Shape" fill="#161010" fill-rule="nonzero"></path>
    </g>
</svg>
