<?xml version="1.0" encoding="UTF-8"?>
<svg viewBox="0 0 40 40" version="1.1" xmlns="http://www.w3.org/2000/svg" xmlns:xlink="http://www.w3.org/1999/xlink">

    <g id="font/etablissement" stroke="none" stroke-width="1" fill="none" fill-rule="evenodd">
        <path d="M34,3 L34,37 L6,37 L6,3 L34,3 Z M31.999,14 L7.999,14 L8,35 L32,35 L31.999,14 Z M15,29 L15,32 L11,32 L11,29 L15,29 Z M22,29 L22,32 L18,32 L18,29 L22,29 Z M29,23 L29,32 L25,32 L25,23 L29,23 Z M15,23 L15,26 L11,26 L11,23 L15,23 Z M22,23 L22,26 L18,26 L18,23 L22,23 Z M15,17 L15,20 L11,20 L11,17 L15,17 Z M22,17 L22,20 L18,20 L18,17 L22,17 Z M29,17 L29,20 L25,20 L25,17 L29,17 Z M32,5 L8,5 L7.999,12 L31.999,12 L32,5 Z" id="Shape" fill="#000000" fill-rule="nonzero"></path>
    </g>
</svg>
