<?xml version="1.0" encoding="UTF-8"?>
<svg viewBox="0 0 40 40" version="1.1" xmlns="http://www.w3.org/2000/svg" xmlns:xlink="http://www.w3.org/1999/xlink">

    <g id="font/eur" stroke="none" stroke-width="1" fill="none" fill-rule="evenodd">
        <path d="M22.609375,29.5703125 C24.09375,29.5703125 25.4696181,29.2881944 26.7369792,28.7239583 L26.7369792,28.7239583 L26.7369792,26.7708333 C25.4088542,27.34375 24.0677083,27.6302083 22.7135417,27.6302083 C21.2378472,27.6302083 20.0594618,27.202691 19.1783854,26.3476562 C18.297309,25.4926215 17.6961806,24.2838542 17.375,22.7213542 L17.375,22.7213542 L23.1953125,22.7213542 L23.1953125,21.0416667 L17.1666667,21.0416667 L17.140625,20.4557292 L17.140625,19.6223958 L17.1666667,18.8802083 L23.9895833,18.8802083 L23.9895833,17.2005208 L17.3489583,17.2005208 C18.0347222,13.7022569 19.7621528,11.953125 22.53125,11.953125 C23.6510417,11.953125 24.9314236,12.3263889 26.3723958,13.0729167 L26.3723958,13.0729167 L27.296875,11.2630208 C25.8645833,10.4210069 24.2760417,10 22.53125,10 C20.4739583,10 18.8116319,10.6336806 17.5442708,11.9010417 C16.2769097,13.1684028 15.4739583,14.9348958 15.1354167,17.2005208 L15.1354167,17.2005208 L13,17.2005208 L13,18.8802083 L14.9791667,18.8802083 L14.953125,19.921875 L14.953125,20.4947917 L14.9791667,21.0416667 L13,21.0416667 L13,22.7213542 L15.1614583,22.7213542 C15.5607639,24.9522569 16.3875868,26.6514757 17.6419271,27.8190104 C18.8962674,28.9865451 20.5520833,29.5703125 22.609375,29.5703125 Z" id="€" fill="#000000" fill-rule="nonzero"></path>
    </g>
</svg>
