<?xml version="1.0" encoding="UTF-8"?>
<svg viewBox="0 0 40 40" version="1.1" xmlns="http://www.w3.org/2000/svg" xmlns:xlink="http://www.w3.org/1999/xlink">

    <g id="font/eye" stroke="none" stroke-width="1" fill="none" fill-rule="evenodd">
        <path d="M20.0102059,12 C25.3418383,12 30.6717696,14.8333333 36,20.5 C30.7027753,26.1666667 25.3838854,29 20.0433304,29 C14.7027753,29 9.35499853,26.1666667 4,20.5 C9.34183828,14.8333333 14.6785736,12 20.0102059,12 Z M20,13.4166667 C15.9833836,13.4166667 12.7272727,16.587983 12.7272727,20.5 C12.7272727,24.412017 15.9833836,27.5833333 20,27.5833333 C24.0166164,27.5833333 27.2727273,24.412017 27.2727273,20.5 C27.2727273,16.587983 24.0166164,13.4166667 20,13.4166667 Z M20,17.6666667 C21.6066465,17.6666667 22.9090909,18.9351932 22.9090909,20.5 C22.9090909,22.0648068 21.6066465,23.3333333 20,23.3333333 C18.3933535,23.3333333 17.0909091,22.0648068 17.0909091,20.5 C17.0909091,18.9351932 18.3933535,17.6666667 20,17.6666667 Z" id="Shape" fill="#000000"></path>
    </g>
</svg>
