<?xml version="1.0" encoding="UTF-8"?>
<svg viewBox="0 0 40 40" version="1.1" xmlns="http://www.w3.org/2000/svg" xmlns:xlink="http://www.w3.org/1999/xlink">

    <g id="font/gid" stroke="none" stroke-width="1" fill="none" fill-rule="evenodd">
        <path d="M26.9090909,28 C29.7207224,28 32,30.2792776 32,33.0909091 L32,36 L34,36 L34,38 L11,38 L11,36 L13,36 L13,33.0909091 C13,30.2792776 15.2792776,28 18.0909091,28 L26.9090909,28 Z M26.9090909,30 L18.0909091,30 C16.3838471,30 15,31.3838471 15,33.0909091 L15,36 L17,36 L17,33 L19,33 L19,36 L26,36 L26,33 L28,33 L28,36 L30,36 L30,33.0909091 C30,31.3838471 28.6161529,30 26.9090909,30 Z M37,3 L37,21 L30,21 L30,19 L35,19 L35,5 L5,5 L5,19 L7.41421356,19 L11,22.5857864 L11,19 L15,19 L15,21 L13,21 L13,27.4142136 L6.58578644,21 L3,21 L3,3 L37,3 Z M22.5,14 C25.5488866,14 28,16.574907 28,19.7272727 L28,21.2727273 C28,24.425093 25.5488866,27 22.5,27 C19.4511134,27 17,24.425093 17,21.2727273 L17,19.7272727 C17,16.574907 19.4511134,14 22.5,14 Z M22.5,16 C20.5783239,16 19,17.6580372 19,19.7272727 L19,21.2727273 C19,23.3419628 20.5783239,25 22.5,25 C24.4216761,25 26,23.3419628 26,21.2727273 L26,19.7272727 C26,17.6580372 24.4216761,16 22.5,16 Z M17,9 L17,11 L15,11 L15,9 L17,9 Z M21,9 L21,11 L19,11 L19,9 L21,9 Z M25,9 L25,11 L23,11 L23,9 L25,9 Z" id="Shape" fill="#000000" fill-rule="nonzero"></path>
    </g>
</svg>
