<?xml version="1.0" encoding="UTF-8"?>
<svg viewBox="0 0 40 40" version="1.1" xmlns="http://www.w3.org/2000/svg" xmlns:xlink="http://www.w3.org/1999/xlink">

    <g id="font/help-alt" stroke="none" stroke-width="1" fill="none" fill-rule="evenodd">
        <path d="M20,3 C29.3888407,3 37,10.6111593 37,20 C37,29.3888407 29.3888407,37 20,37 C10.6111593,37 3,29.3888407 3,20 C3,10.6111593 10.6111593,3 20,3 Z M21.36,26.9579798 L18.2804598,26.9579798 L18.2804598,30.2 L21.36,30.2 L21.36,26.9579798 Z M19.9843678,9.8 C18.0563888,9.8 16.4515007,10.3769639 15.1696552,11.5309091 C13.9632124,12.6169751 13.3106688,13.9910166 13.2120081,15.6530705 L13.2,15.9680808 L16.263908,15.9543434 C16.2951726,14.9011395 16.6286558,14.058589 17.2643678,13.4266667 C17.9000798,12.7947443 18.7285773,12.4787879 19.7498851,12.4787879 C20.8649864,12.4787879 21.763828,12.776428 22.4464368,13.3717172 C23.1290456,13.9670063 23.4703448,14.7454497 23.4703448,15.7070707 C23.4703448,16.6293649 22.9118469,17.6003205 21.7948353,18.6199635 L21.080574,19.2489526 C20.8330647,19.4714691 20.6344069,19.6599992 20.4845977,19.8145455 C19.7759352,20.5746839 19.2366302,21.3851809 18.8666667,22.2460606 C18.5429486,22.9993304 18.3568698,23.7876488 18.3084267,24.6110342 L18.296092,24.9660606 L21.4381609,24.9660606 C21.50069,24.1509724 21.693485,23.4343465 22.0165517,22.8161616 C22.3102488,22.2541753 22.8450971,21.6070486 23.6211104,20.874765 L23.8611494,20.6525253 L24.08,20.460202 C25.8933424,18.8025506 26.8,17.1998731 26.8,15.6521212 C26.8,13.9853115 26.1486655,12.5932716 24.845977,11.4759596 C23.5432885,10.3586476 21.9227683,9.8 19.9843678,9.8 Z" id="Shape" fill="#000000"></path>
    </g>
</svg>
