<?xml version="1.0" encoding="UTF-8"?>
<svg viewBox="0 0 40 40" version="1.1" xmlns="http://www.w3.org/2000/svg" xmlns:xlink="http://www.w3.org/1999/xlink">

    <g id="font/help" stroke="none" stroke-width="1" fill="none" fill-rule="evenodd">
        <path d="M20,2.5 C29.6649831,2.5 37.5,10.3350169 37.5,20 C37.5,29.6649831 29.6649831,37.5 20,37.5 C10.3350169,37.5 2.5,29.6649831 2.5,20 C2.5,10.3350169 10.3350169,2.5 20,2.5 Z M20,5.5 C11.9918711,5.5 5.5,11.9918711 5.5,20 C5.5,28.0081289 11.9918711,34.5 20,34.5 C28.0081289,34.5 34.5,28.0081289 34.5,20 C34.5,11.9918711 28.0081289,5.5 20,5.5 Z M21.5131836,25.9453125 L21.5131836,29 L18.4360352,29 L18.4360352,25.9453125 L21.5131836,25.9453125 Z M20.0869141,11.6489258 C21.6142654,11.6489258 22.8645785,12.1337028 23.8378906,13.1032715 C24.8112028,14.0728401 25.2978516,15.3212814 25.2978516,16.8486328 C25.2978516,17.6647176 25.123781,18.3834604 24.7756348,19.0048828 C24.4623031,19.564163 23.9321737,20.1749829 23.185233,20.8373576 L22.9282227,21.0600586 C22.3367483,21.5616887 21.9530445,22.0371071 21.7770996,22.4863281 C21.6011547,22.9355491 21.5131836,23.6655223 21.5131836,24.6762695 L18.4360352,24.6762695 C18.4360352,23.3061455 18.5801581,22.2542354 18.8684082,21.5205078 C19.1566583,20.7867802 19.6975872,20.0904981 20.4912109,19.4316406 L20.8658087,19.114959 C21.3892793,18.661099 21.739834,18.3024694 21.9174805,18.0390625 C22.134604,17.7171208 22.2431641,17.3203149 22.2431641,16.8486328 C22.2431641,16.2197234 22.0410176,15.703127 21.6367188,15.2988281 C21.2324199,14.8945292 20.7158235,14.6923828 20.0869141,14.6923828 C19.4505177,14.6923828 18.9488951,14.8814271 18.5820312,15.2595215 C18.2151674,15.6376158 18.0055341,16.189775 17.953125,16.9160156 L14.8759766,16.9160156 C14.9508467,15.3137941 15.4618279,14.0354052 16.4089355,13.0808105 C17.3560431,12.1262159 18.5820237,11.6489258 20.0869141,11.6489258 Z" id="Combined-Shape" fill="#000000" fill-rule="nonzero"></path>
    </g>
</svg>
