<?xml version="1.0" encoding="UTF-8"?>
<svg viewBox="0 0 40 40" version="1.1" xmlns="http://www.w3.org/2000/svg" xmlns:xlink="http://www.w3.org/1999/xlink">

    <g id="icon/home" stroke="none" stroke-width="1" fill="none" fill-rule="evenodd">
        <path d="M11.9995987,35.9935861 C9.44382168,35.9935861 7.35467251,33.9957147 7.20870749,31.4765281 L7.20056082,31.1945482 L7.20055321,21.5964723 L5.60088151,21.5964723 C4.23768303,21.5964723 3.52540349,20.0199666 4.3479724,19.0009499 L4.46973743,18.865649 L18.8668512,4.46853522 C19.4435099,3.89187649 20.3508977,3.84751812 20.9784378,4.33546013 L21.1291393,4.46853522 L35.5262531,18.865649 C36.49018,19.8295758 35.8790798,21.4479914 34.576882,21.586901 L34.395109,21.5964723 L32.7954221,21.5964723 L32.7954297,31.1945482 C32.7954297,33.7503252 30.7975583,35.8394744 28.2783717,35.9854394 L27.9963918,35.9935861 L11.9995987,35.9935861 Z M19.9979952,7.86322552 L9.36012788,18.4994932 L9.50373856,18.559707 L9.67226444,18.6554713 L9.67226444,18.6554713 L9.85310791,18.7924202 L9.85310791,18.7924202 L9.90998648,18.8446479 L9.90998648,18.8446479 L10.0003574,18.9390809 L10.0003574,18.9390809 L10.117857,19.0894168 L10.117857,19.0894168 L10.2208971,19.2607441 L10.2208971,19.2607441 L10.3167525,19.4863458 L10.3167525,19.4863458 L10.3561484,19.6235722 L10.3561484,19.6235722 C10.3706998,19.6844391 10.3817858,19.7467714 10.3891572,19.8102366 L10.3999194,19.996793 L10.3999194,31.1945482 C10.3999194,32.014921 11.0174599,32.6910596 11.8130423,32.7834653 L11.9995987,32.7942275 L13.5992704,32.7942275 L13.599278,24.7958309 C13.599278,22.2400539 15.5971495,20.1509047 18.116336,20.0049397 L18.3983159,19.996793 L21.5976745,19.996793 C24.1534516,19.996793 26.2426008,21.9946645 26.3885658,24.513851 L26.3967125,24.7958309 L26.3967049,32.7942275 L27.9963918,32.7942275 C28.8167646,32.7942275 29.4929032,32.176687 29.5853089,31.3811046 L29.5960711,31.1945482 L29.5960711,19.996793 C29.5960711,19.8624015 29.6126435,19.7318806 29.6438563,19.6071626 L29.6805898,19.4823406 L29.6805898,19.4823406 L29.7319306,19.3506588 L29.7319306,19.3506588 L29.8119775,19.1936815 L29.8119775,19.1936815 L29.9124254,19.041615 L29.9124254,19.041615 L30.0331021,18.8980503 L30.0331021,18.8980503 L30.0859619,18.8446888 L30.0859619,18.8446888 L30.174257,18.7656721 L30.174257,18.7656721 C30.2708184,18.685386 30.3776828,18.6158979 30.4922519,18.559707 L30.6342629,18.4994932 L19.9979952,7.86322552 Z M21.5976745,23.1961516 L18.3983159,23.1961516 C17.5779431,23.1961516 16.9018045,23.8136921 16.8093989,24.6092745 L16.798629,24.7958309 L16.798629,32.7942275 L23.1973539,32.7942275 L23.1973539,24.7958309 C23.1973539,23.9754581 22.5798133,23.2993195 21.7842309,23.2069139 L21.5976745,23.1961516 Z" id="Shape" fill="#000000" fill-rule="nonzero"></path>
    </g>
</svg>
