<?xml version="1.0" encoding="UTF-8"?>
<svg viewBox="0 0 40 40" version="1.1" xmlns="http://www.w3.org/2000/svg" xmlns:xlink="http://www.w3.org/1999/xlink">

    <g id="font/info" stroke="none" stroke-width="1" fill="none" fill-rule="evenodd">
        <path d="M20,2.5 C29.6649831,2.5 37.5,10.3350169 37.5,20 C37.5,29.6649831 29.6649831,37.5 20,37.5 C10.3350169,37.5 2.5,29.6649831 2.5,20 C2.5,10.3350169 10.3350169,2.5 20,2.5 Z M20,5.5 C11.9918711,5.5 5.5,11.9918711 5.5,20 C5.5,28.0081289 11.9918711,34.5 20,34.5 C28.0081289,34.5 34.5,28.0081289 34.5,20 C34.5,11.9918711 28.0081289,5.5 20,5.5 Z M21.5,16 L21.5,30 L18.5,30 L18.5,16 L21.5,16 Z M21.5,10 L21.5,13 L18.5,13 L18.5,10 L21.5,10 Z" id="Shape" fill="#000000" fill-rule="nonzero"></path>
    </g>
</svg>
