<?xml version="1.0" encoding="UTF-8"?>
<svg viewBox="0 0 40 40" version="1.1" xmlns="http://www.w3.org/2000/svg" xmlns:xlink="http://www.w3.org/1999/xlink">

    <g id="font/ol" stroke="none" stroke-width="1" fill="none" fill-rule="evenodd">
        <path d="M6.33800554,27.4870075 C6.99850593,27.4870075 7.52566262,27.6385862 7.91947561,27.9417435 C8.3132886,28.2449008 8.51019509,28.6577256 8.51019509,29.1802179 C8.51019509,29.8144733 8.1965265,30.2796871 7.56918932,30.5758592 C8.3540517,30.8468846 8.74648289,31.3484213 8.74648289,32.0804694 C8.74648289,32.4576697 8.64630239,32.7922604 8.44594139,33.0842414 C8.2455804,33.3762224 7.96714771,33.6018441 7.61064331,33.7611065 C7.25413892,33.9203688 6.85203513,34 6.40433194,34 C5.0026686,34 4.21067052,33.3946622 4.02833769,32.1839867 L4,31.9337804 L5.35969117,31.8206203 L5.37017903,32.0308466 C5.42813172,32.6283319 5.72448636,32.9270746 6.25924295,32.9270746 C6.53283934,32.9270746 6.75530913,32.8404582 6.92665233,32.6672255 C7.09799553,32.4939927 7.18366712,32.2802459 7.18366712,32.0259849 C7.18366712,31.7633417 7.09315923,31.5502934 6.91214343,31.3868399 C6.73112764,31.2233864 6.47480374,31.1416597 6.14317175,31.1416597 L5.79495816,31.1626153 L5.79495816,30.0100587 L6.01532762,29.9991618 C6.29566719,29.9745739 6.5220613,29.9097513 6.69450994,29.804694 C6.91007073,29.6733725 7.01785113,29.4847723 7.01785113,29.2388935 C7.01785113,29.0433082 6.94530663,28.8840458 6.80021763,28.7611065 C6.65512864,28.6381671 6.47204014,28.5766974 6.25095215,28.5766974 C5.80877616,28.5766974 5.56312283,28.7985678 5.51399216,29.2423085 L5.50478016,29.4191115 L4.1906884,29.3059514 L4.21995999,29.0682125 C4.29914559,28.6082163 4.50218559,28.2411088 4.82907998,27.9668902 C5.21045677,27.6469684 5.71343196,27.4870075 6.33800554,27.4870075 Z M36,28.7661358 L36,32.1994971 L12.2286188,32.1994971 L12.2286188,28.7661358 L36,28.7661358 Z M6.48309454,17.1869237 C7.16017652,17.1869237 7.69286041,17.3440905 8.0811462,17.6584241 C8.46943199,17.9727578 8.66357489,18.4079352 8.66357489,18.9639564 C8.66357489,19.2852752 8.59241219,19.5646829 8.45008679,19.8021794 C8.3077614,20.0396759 8.1163821,20.2555183 7.87594891,20.4497066 C7.63551571,20.6438949 7.28592032,20.8806929 6.82716273,21.1601006 C6.16389875,21.5723821 5.76375677,21.9802483 5.62673681,22.3836992 L5.58768816,22.5347863 L7.47384512,22.5347863 L7.47384512,21.7175189 L8.73819209,21.7175189 L8.66357489,23.6160939 L4.1119258,23.6160939 L4.11988497,23.291031 C4.14110941,22.8734842 4.20478276,22.5194188 4.31090499,22.2288349 C4.44355779,21.8656049 4.65290048,21.5324113 4.93893308,21.229254 C5.16775915,20.9867281 5.48280954,20.7079911 5.88408426,20.3930427 L6.20120735,20.1500419 C6.49414894,19.9321039 6.71730964,19.7211512 6.87068943,19.5171836 C7.02406923,19.313216 7.10075913,19.1036602 7.10075913,18.8885163 C7.10075913,18.6761665 7.03995993,18.5155071 6.91836153,18.4065381 C6.79676313,18.2975692 6.62265634,18.2430847 6.39604114,18.2430847 C6.10309955,18.2430847 5.88546606,18.345767 5.74314066,18.5511316 C5.62928034,18.7154233 5.55212063,18.9624197 5.51166153,19.2921207 L5.48819856,19.5549036 L4.1906884,19.5046102 L4.20539161,19.221579 C4.25949772,18.5828706 4.45219404,18.0960464 4.78348058,17.7611065 C5.16209377,17.378318 5.72863176,17.1869237 6.48309454,17.1869237 Z M36,18.466052 L36,21.8994132 L12.2286188,21.8994132 L12.2286188,18.466052 L36,18.466052 Z M7.23755732,7 L7.23755732,12.2347024 L8.0417649,12.2347024 L8.0417649,13.3160101 L4.85809778,13.3160101 L4.85809778,12.2347024 L5.71619556,12.2347024 L5.71619556,8.08130763 L4.80006218,8.08130763 L4.80006218,7 L7.23755732,7 Z M36,8.16596815 L36,11.5993294 L12.2286188,11.5993294 L12.2286188,8.16596815 L36,8.16596815 Z" id="Shape" fill="#191A1A"></path>
    </g>
</svg>
