<?xml version="1.0" encoding="UTF-8"?>
<svg viewBox="0 0 40 40" version="1.1" xmlns="http://www.w3.org/2000/svg" xmlns:xlink="http://www.w3.org/1999/xlink">

    <g id="font/outils-externes-" stroke="none" stroke-width="1" fill="none" fill-rule="evenodd">
        <path d="M24,6 C25.1045695,6 26,6.8954305 26,8 L26,10 L33,10 C35.209139,10 37,11.790861 37,14 L37,33 L3,33 L3,14 C3,11.790861 4.790861,10 7,10 L14,10 L14,8 C14,6.8954305 14.8954305,6 16,6 L24,6 Z M33,12 L7,12 C5.9456382,12 5.08183488,12.8158778 5.00548574,13.8507377 L5,14 L5,18 L11,18 L11,20 L5,20 L5,31 L35,31 L35,20 L29,20 L29,18 L35,18 L35,14 C35,12.9456382 34.1841222,12.0818349 33.1492623,12.0054857 L33,12 Z M21.0769231,15 L21.0762854,16.1744701 C21.9106302,16.3276323 22.683819,16.6556267 23.3564698,17.1190714 L24.1882479,16.2887529 L25.7112471,17.8117521 L24.8809286,18.6435302 C25.3443733,19.316181 25.6723677,20.0893698 25.8255299,20.9237146 L27,20.9230769 L27,23.0769231 L25.8255299,23.0762854 C25.6723677,23.9106302 25.3443733,24.683819 24.8809286,25.3564698 L25.7112471,26.1882479 L24.1882479,27.7112471 L23.3564698,26.8809286 C22.683819,27.3443733 21.9106302,27.6723677 21.0762854,27.8255299 L21.0769231,29 L18.9230769,29 L18.9237146,27.8255299 C18.0893698,27.6723677 17.316181,27.3443733 16.6435302,26.8809286 L15.8117521,27.7112471 L14.2887529,26.1882479 L15.1190714,25.3564698 C14.6556267,24.683819 14.3276323,23.9106302 14.1744701,23.0762854 L13,23.0769231 L13,20.9230769 L14.1744701,20.9237146 C14.3276323,20.0893698 14.6556267,19.316181 15.1190714,18.6435302 L14.2887529,17.8117521 L15.8117521,16.2887529 L16.6435302,17.1190714 C17.316181,16.6556267 18.0893698,16.3276323 18.9237146,16.1744701 L18.9230769,15 L21.0769231,15 Z M20,18 C17.790861,18 16,19.790861 16,22 C16,24.209139 17.790861,26 20,26 C22.209139,26 24,24.209139 24,22 C24,19.790861 22.209139,18 20,18 Z M24,8 L16,8 L16,10 L24,10 L24,8 Z" id="Combined-Shape" fill="#000000" fill-rule="nonzero"></path>
    </g>
</svg>
