<?xml version="1.0" encoding="UTF-8"?>
<svg viewBox="0 0 40 40" version="1.1" xmlns="http://www.w3.org/2000/svg" xmlns:xlink="http://www.w3.org/1999/xlink">

    <g id="font/perefisc" stroke="none" stroke-width="1" fill="none" fill-rule="evenodd">
        <path d="M37,8 L37,32 L3,32 L3,8 L37,8 Z M35,10 L5,10 L5,30 L35,30 L35,10 Z M21,13 C22.6392255,13 24.1926572,13.5667296 25.4312651,14.5808881 L25.6597588,14.776257 L24.3279653,16.2683448 C23.4177465,15.4559103 22.2456455,15 21,15 C19.1494167,15 17.5336486,16.0053634 16.6690828,17.4997031 L20,17.5 L20,19.5 L16.0246578,19.5003002 C16.0083496,19.6646561 16,19.831353 16,20 C16,20.1689898 16.0083835,20.3360215 16.0247574,20.500702 L20,20.5 L20,22.5 L16.6696616,22.5012971 C17.5343696,23.9950852 19.1498296,25 21,25 C22.1563095,25 23.249248,24.607141 24.1281692,23.9009052 L24.3271295,23.732401 L25.6585911,25.2247851 C24.3854804,26.3606173 22.741132,27 21,27 C18.0150708,27 15.4665057,25.1317035 14.4598981,22.5007039 L12,22.5 L12,20.5 L14.0176097,20.5003924 C14.0059359,20.3351134 14,20.1682499 14,20 C14,19.8320914 14.0059119,19.6655636 14.0175388,19.5006133 L12,19.5 L12,17.5 L14.4595174,17.5002913 C15.465863,14.8687677 18.0146945,13 21,13 Z" id="Shape" fill="#000000" fill-rule="nonzero"></path>
    </g>
</svg>
