<?xml version="1.0" encoding="UTF-8"?>
<svg viewBox="0 0 40 40" version="1.1" xmlns="http://www.w3.org/2000/svg" xmlns:xlink="http://www.w3.org/1999/xlink">

    <g id="icon/reclamations" stroke="none" stroke-width="1" fill="none" fill-rule="evenodd">
        <path d="M26.4142136,3 L34,10.5857864 L34.001093,21.9360629 C36.9639377,23.4089742 39,26.4667132 39,30 C39,34.9705627 34.9705627,39 30,39 C27.8571456,39 25.889204,38.251109 24.3436224,37.0007741 L6,37 L6,3 L26.4142136,3 Z M30,23 C26.1340068,23 23,26.1340068 23,30 C23,33.8659932 26.1340068,37 30,37 C33.8659932,37 37,33.8659932 37,30 C37,26.1340068 33.8659932,23 30,23 Z M25,5 L8,5 L8,35 L22.5163591,35.00121 C21.5585866,33.570872 21,31.8506685 21,30 C21,25.0294373 25.0294373,21 30,21 C30.6877129,21 31.35741,21.0771343 32.0009121,21.2232234 L32,12 L25,12 L25,5 Z M30,32.7069199 C30.285205,32.7069199 30.5231729,32.8006083 30.7139037,32.987985 C30.9046346,33.1753618 31,33.4150067 31,33.7069199 C31,33.9988332 30.9046346,34.2384781 30.7139037,34.4258549 C30.5231729,34.6132316 30.285205,34.7069199 30,34.7069199 C29.714795,34.7069199 29.4768271,34.6132316 29.2860963,34.4258549 C29.0953654,34.2384781 29,33.9988332 29,33.7069199 C29,33.4150067 29.0953654,33.1753618 29.2860963,32.987985 C29.4768271,32.8006083 29.714795,32.7069199 30,32.7069199 Z M30.973262,25 L30.7433155,31.7503392 L29.2834225,31.7503392 L29.0534759,25 L30.973262,25 Z M27,6.415 L27,10 L30.586,10 L27,6.415 Z" id="Combined-Shape" fill="#000000" fill-rule="nonzero"></path>
    </g>
</svg>
