<?xml version="1.0" encoding="UTF-8"?>
<svg viewBox="0 0 40 40" version="1.1" xmlns="http://www.w3.org/2000/svg" xmlns:xlink="http://www.w3.org/1999/xlink">

    <g id="font/save" stroke="none" stroke-width="1" fill="none" fill-rule="evenodd">
        <path d="M29.0236893,3.33333333 L36.6666667,10.9763107 L36.6666667,36.6666667 L3.33333333,36.6666667 L3.33333333,3.33333333 L29.0236893,3.33333333 Z M13.3333333,6.66666667 L6.66666667,6.66666667 L6.66666667,33.3333333 L9.99933333,33.3323333 L10,23.3333333 L30,23.3333333 L29.9993333,33.3323333 L33.3333333,33.3333333 L33.3333333,12.3583333 L27.6416667,6.66666667 L26.6666667,6.66666667 L26.6666667,15 L13.3333333,15 L13.3333333,6.66666667 Z M26.6666667,26.6666667 L13.3333333,26.6666667 L13.3323333,33.3323333 L26.6663333,33.3323333 L26.6666667,26.6666667 Z M23.3333333,6.66666667 L16.6666667,6.66666667 L16.6666667,11.6666667 L23.3333333,11.6666667 L23.3333333,6.66666667 Z" id="Combined-Shape" fill="#191A1A" fill-rule="nonzero"></path>
    </g>
</svg>
