<?xml version="1.0" encoding="UTF-8"?>
<svg viewBox="0 0 40 40" version="1.1" xmlns="http://www.w3.org/2000/svg" xmlns:xlink="http://www.w3.org/1999/xlink">

    <g id="font/search" stroke="none" stroke-width="1" fill="none" fill-rule="evenodd">
        <path d="M17,4.5 C23.9035594,4.5 29.5,10.0964406 29.5,17 C29.5,19.9112891 28.5047402,22.5901229 26.8359017,24.7148202 L35.0606602,32.9393398 L32.9393398,35.0606602 L24.7148202,26.8359017 C22.5901229,28.5047402 19.9112891,29.5 17,29.5 C10.0964406,29.5 4.5,23.9035594 4.5,17 C4.5,10.0964406 10.0964406,4.5 17,4.5 Z M17,7.5 C11.7532949,7.5 7.5,11.7532949 7.5,17 C7.5,22.2467051 11.7532949,26.5 17,26.5 C22.2467051,26.5 26.5,22.2467051 26.5,17 C26.5,11.7532949 22.2467051,7.5 17,7.5 Z" id="Shape" fill="#000000" fill-rule="nonzero"></path>
    </g>
</svg>
