<?xml version="1.0" encoding="UTF-8"?>
<svg version="1.1"
    xmlns="http://www.w3.org/2000/svg"
    xmlns:xlink="http://www.w3.org/1999/xlink">


    <g id="Symbols" stroke="none" stroke-width="1" fill="none" fill-rule="evenodd">
        <g id="input/dropdown-text-Icon/error" transform="translate(-90.000000, -18.000000)">
            <path d="M2,0.5 C1.17157288,0.5 0.5,1.17157288 0.5,2 L0.5,38 C0.5,38.8284271 1.17157288,39.5 2,39.5 L278,39.5 C278.828427,39.5 279.5,38.8284271 279.5,38 L279.5,2 C279.5,1.17157288 278.828427,0.5 278,0.5 L2,0.5 Z" id="Mask" stroke-opacity="0.6" stroke="#DD1833" fill="#FFFFFF"></path>
            <g id="Group-2">
                <path d="M109.5,39.5 L109.5,0.5 L2,0.5 C1.17157288,0.5 0.5,1.17157288 0.5,2 L0.5,38 C0.5,38.8284271 1.17157288,39.5 2,39.5 L109.5,39.5 Z" id="Mask" stroke-opacity="0.6" stroke="#DD1833" fill-opacity="0.6" fill="#F9E6E8"></path>
                <g id="Group" transform="translate(8.000000, 10.000000)" fill="#DD1833">
                    <g id="font/arrow-bottom-alt" transform="translate(78.000000, 3.000000)">
                        <polygon id="Triangle" transform="translate(8.000000, 8.000000) scale(1, -1) translate(-8.000000, -8.000000) " points="8 5.6 11.6 10.4 4.4 10.4"></polygon>
                    </g>
                </g>
            </g>
        </g>
    </g>
</svg>
