<?xml version="1.0" encoding="UTF-8"?>
<svg viewBox="0 0 40 40" version="1.1" xmlns="http://www.w3.org/2000/svg" xmlns:xlink="http://www.w3.org/1999/xlink">

    <g id="font/task-late" stroke="none" stroke-width="1" fill="none" fill-rule="evenodd">
        <path d="M20,2.5 L20,5.5 C11.9918711,5.5 5.5,11.9918711 5.5,20 C5.5,28.0081289 11.9918711,34.5 20,34.5 C27.9027588,34.5 34.3288988,28.1778436 34.4966395,20.3153115 L34.5,20 L37.5,20 C37.5,29.6649831 29.6649831,37.5 20,37.5 C10.3350169,37.5 2.5,29.6649831 2.5,20 C2.5,10.4448462 10.1579601,2.67830487 19.6712297,2.50302645 L20,2.5 Z M21.5,10 L21.5,18.5 L27,18.5 L27,21.5 L18.5,21.5 L18.5,10 L21.5,10 Z" id="Shape" fill="#000000" fill-rule="nonzero"></path>
    </g>
</svg>
