<?xml version="1.0" encoding="UTF-8"?>
<svg viewBox="0 0 40 40" version="1.1" xmlns="http://www.w3.org/2000/svg" xmlns:xlink="http://www.w3.org/1999/xlink">

    <g id="font/ul" stroke="none" stroke-width="1" fill="none" fill-rule="evenodd">
        <path d="M6.4,27.25 C8.27776815,27.25 9.8,28.761039 9.8,30.625 C9.8,32.488961 8.27776815,34 6.4,34 C4.52223185,34 3,32.488961 3,30.625 C3,28.761039 4.52223185,27.25 6.4,27.25 Z M37,28.9375 L37,32.3125 L13.2,32.3125 L13.2,28.9375 L37,28.9375 Z M6.4,17.125 C8.27776815,17.125 9.8,18.636039 9.8,20.5 C9.8,22.363961 8.27776815,23.875 6.4,23.875 C4.52223185,23.875 3,22.363961 3,20.5 C3,18.636039 4.52223185,17.125 6.4,17.125 Z M37,18.8125 L37,22.1875 L13.2,22.1875 L13.2,18.8125 L37,18.8125 Z M6.4,7 C8.27776815,7 9.8,8.51103897 9.8,10.375 C9.8,12.238961 8.27776815,13.75 6.4,13.75 C4.52223185,13.75 3,12.238961 3,10.375 C3,8.51103897 4.52223185,7 6.4,7 Z M37,8.6875 L37,12.0625 L13.2,12.0625 L13.2,8.6875 L37,8.6875 Z" id="Shape" fill="#191A1A"></path>
    </g>
</svg>
