<?xml version="1.0" encoding="UTF-8"?>
<svg viewBox="0 0 40 40" version="1.1" xmlns="http://www.w3.org/2000/svg" xmlns:xlink="http://www.w3.org/1999/xlink">

    <g id="font/underlined" stroke="none" stroke-width="1" fill="none" fill-rule="evenodd">
        <path d="M33,31.185811 L33,34 L8,34 L8,31.185811 L33,31.185811 Z M18.9225803,7 L18.9225803,9.84167133 L16.2668728,9.84167133 L16.2668728,21.450201 L16.2720118,21.8519986 C16.3199759,23.6928821 16.7036886,25.0553616 17.42315,25.9394371 C18.1940014,26.8866609 19.3254123,27.3602728 20.8173828,27.3602728 C22.3292462,27.3602728 23.4805501,26.8916993 24.2712945,25.9545524 C25.0093226,25.0798819 25.4029375,23.7224184 25.4521394,21.8821619 L25.457411,21.4804316 L25.457411,9.84167133 L22.831543,9.84167133 L22.831543,7 L31.6341688,7 L31.6341688,9.84167133 L28.8292643,9.84167133 L28.8292643,21.7978523 L28.8222175,22.2712637 C28.7470511,24.7602802 28.0705534,26.675788 26.7927246,28.0177872 C25.4350315,29.4436613 23.4432509,30.1565983 20.8173828,30.1565983 C18.1716218,30.1565983 16.1848145,29.4486997 14.8569607,28.0329024 C13.607216,26.7003874 12.9455865,24.722954 12.8720721,22.1006023 L12.8651801,21.6013538 L12.8651801,9.84167133 L10.090115,9.84167133 L10.090115,7 L18.9225803,7 Z" id="Shape" fill="#191A1A"></path>
    </g>
</svg>
