<?xml version="1.0" standalone="no"?>
<!DOCTYPE svg PUBLIC "-//W3C//DTD SVG 1.1//EN" "http://www.w3.org/Graphics/SVG/1.1/DTD/svg11.dtd" >
<svg xmlns="http://www.w3.org/2000/svg">
<defs>
  <font id="icons" horiz-adv-x="256">
    <font-face font-family="icons"
      units-per-em="256" ascent="256"
      descent="0" />
    <missing-glyph horiz-adv-x="0" />
    <glyph glyph-name="admin"
      unicode="&#xEA02;"
      horiz-adv-x="256" d="M128 236.8C162.752 236.8 191.0272 209.1072 191.9744 174.592L192 172.8V147.2H211.2V19.2H44.8V147.2H64V172.8C64 208.1472 92.6528 236.8 128 236.8zM198.4 134.4H57.6V32H198.4V134.4zM158.7392 111.84L167.7952 102.7904L118.0096 53.0048L88.2048 82.8096L97.2608 91.8656L118.0032 71.1104L158.7392000000001 111.84zM128 224A51.20000000000001 51.20000000000001 0 0 1 76.8256 174.4L76.8 172.8V147.2H179.2V172.8A51.20000000000001 51.20000000000001 0 0 1 128 224z" />
    <glyph glyph-name="arrow-left"
      unicode="&#xEA03;"
      horiz-adv-x="256" d="M167.4688 31.3408L152.5696 19.2384L64.448 127.6928L152.5696 236.1408L167.4688 224.0384L89.184 127.6928z" />
    <glyph glyph-name="annulation"
      unicode="&#xEA04;"
      horiz-adv-x="256" d="M197.3312 211.2L211.2 197.3312L141.856 128L211.2 58.6688L197.3312 44.8L128 114.144L58.6688 44.8L44.8 58.6688L114.1312 128L44.8 197.3312L58.6688 211.2L128 141.8688z" />
    <glyph glyph-name="arrow-bottom-alt"
      unicode="&#xEA05;"
      horiz-adv-x="256" d="M128 89.6L185.6 166.4H70.4z" />
    <glyph glyph-name="arrow-bottom"
      unicode="&#xEA06;"
      horiz-adv-x="256" d="M31.6544 167.4496L19.5456 152.5504L128 64.4288L236.4544 152.5504L224.3456 167.4496L128 89.1712z" />
    <glyph glyph-name="arrow-right-alt"
      unicode="&#xEA07;"
      horiz-adv-x="256" d="M166.4 128L89.6 70.4V185.6z" />
    <glyph glyph-name="arrow-right-long"
      unicode="&#xEA08;"
      horiz-adv-x="256" d="M148.416 214.1888L224.2240000000001 124.5888L148.4160000000001 34.9888L131.2448000000001 49.0816L188.3008000000001 116.5184H45.024V138.5344H183.328L131.2448 200.0896z" />
    <glyph glyph-name="arrow-right"
      unicode="&#xEA09;"
      horiz-adv-x="256" d="M88.5696 224.0384L103.4688 236.1408L191.5904 127.6928L103.4688 19.2384L88.5696 31.3408L166.8544 127.6928z" />
    <glyph glyph-name="arrow-top-alt"
      unicode="&#xEA0A;"
      horiz-adv-x="256" d="M128 166.4L185.6 89.6H70.4z" />
    <glyph glyph-name="arrow-top"
      unicode="&#xEA0B;"
      horiz-adv-x="256" d="M31.6544 88.5312L19.5456 103.4304L128 191.552L236.4544 103.4304L224.3456 88.5312L128 166.816z" />
    <glyph glyph-name="attach"
      unicode="&#xEA0C;"
      horiz-adv-x="256" d="M130.5088 230.4L143.744 217.0688L44.7936 116.7488C27.0464 98.752 27.0464 69.5616 44.7936 51.5648A44.9472 44.9472 0 0 1 107.8016 50.3936L108.9984 51.5648L216.5504 160.608A27.86560000000001 27.86560000000001 0 0 1 216.5504 199.6224A26.880000000000006 26.880000000000006 0 0 1 179.2064 200.6336L178.1568 199.6224L87.8144 108.032A9.177600000000002 9.177600000000002 0 0 1 87.8144 95.1872C91.0784 91.8848 96.224 91.68 99.7184 94.5728L100.3968 95.1872L182.1376 178.0672L195.3664 164.736L113.6256 81.856A27.3472 27.3472 0 0 0 74.5856 81.856A28.2048 28.2048 0 0 0 73.5744 120.2816L74.5856 121.3632L164.928 212.9536A45.42080000000001 45.42080000000001 0 0 0 229.7856 212.9536C247.2768 195.2192 247.6608 166.72 230.9504 148.5056L229.7856 147.2832L122.2336 38.2336A63.50080000000001 63.50080000000001 0 0 0 31.5648 38.2336C7.0016 63.1424 6.5536 103.2256 30.2208 128.6784L31.5648 130.08L130.5088 230.4z" />
    <glyph glyph-name="bell-filled"
      unicode="&#xEA0D;"
      horiz-adv-x="256" d="M157.5488 51.7312A32.00000000000001 32.00000000000001 0 0 0 93.6 49.856L93.5488 51.7312H157.5488zM136.2112 233.0688V210.8416C167.9936 205.6128 192.2368 178.016 192.2368 144.7616V90.1056L210.7648 62.4H40.1024L58.2848 90.0992V144.7552C58.2848 178.2144 82.816 205.9392 114.8736 210.9312L114.88 233.0688H136.2112zM78.4 221.5488L63.1488 236.8C37.5488 217.28 20.6912 187.2 19.2 153.0688H40.5312A90.08640000000001 90.08640000000001 0 0 0 78.4 221.5488zM210.56 153.0688H231.8912C230.2912 187.2 213.44 217.28 187.9488 236.8L172.8 221.5488C194.3488 206.08 208.96 181.3312 210.56 153.0688z" />
    <glyph glyph-name="bell"
      unicode="&#xEA0E;"
      horiz-adv-x="256" d="M162.2464 55.4688A32.00000000000001 32.00000000000001 0 0 0 98.304 53.5872L98.2464 55.4688H162.2464zM140.9152 236.8V214.5728C172.6912 209.344 196.9344 181.7536 196.9344 148.4928V93.8368L215.4688 66.1312H44.8L62.9888 93.8368V148.4928C62.9888 181.9456 87.5136 209.6768 119.5712 214.6688L119.5776 236.8H140.9152zM129.9584 194.1312A45.644800000000004 45.644800000000004 0 0 1 84.3712 150.7008L84.32 148.4928V87.4688H175.6032V148.4928A45.644800000000004 45.644800000000004 0 0 1 132.1728 194.08L129.9584 194.1312z" />
    <glyph glyph-name="bold"
      unicode="&#xEA0F;"
      horiz-adv-x="256" d="M133.5552 38.4C185.3184 38.4 211.2 55.2192 211.2 88.8512C211.2 98.8672 208.576 107.296 203.3152 114.1312C198.0672 120.9792 190.0672 126.3488 179.3152 130.2464C196.0192 137.28 204.3776 149.1648 204.3776 165.9072C204.3776 181.12 198.5536 192.4672 186.9056 199.9616C175.2576 207.4496 157.472 211.2 133.5552 211.2H51.2V181.8432H73.088V67.7568H51.2V38.4H133.5552zM133.3184 142.8608H119.0848V181.8432H129.9008C138.9248 181.8432 145.9264 180.4864 150.9056 177.7728C155.8848 175.0592 158.3744 170.3424 158.3744 163.616C158.3744 156.0448 156.3008 150.6944 152.1408 147.5584C147.9808 144.4224 141.7088 142.8608 133.3184 142.8608zM137.2032 67.7568H119.0848V113.728H130.7328C142.8864 113.728 151.456 111.8912 156.4352 108.224S163.904 98.5152 163.904 90.112C163.904 82.3872 161.4912 76.7296 156.672 73.1392C151.8464 69.5424 145.3568 67.7504 137.1968 67.7504z" />
    <glyph glyph-name="calendar"
      unicode="&#xEA10;"
      horiz-adv-x="256" d="M83.2 236.8V227.2H172.8V236.8H192V227.2H233.6V22.4H22.4V227.2H64V236.8H83.2zM214.4 156.8H41.6V41.6H214.4V156.8zM64 208H41.6V176H214.4V208H192V192H172.8V208H83.2V192H64V208zM64 128H83.2V108.8H64zM118.4 128H137.6V108.8H118.4zM172.8 128H192V108.8H172.8zM64 83.2H83.2V64H64zM118.4 83.2H137.6V64H118.4zM172.8 83.2H192V64H172.8z" />
    <glyph glyph-name="agression"
      unicode="&#xEA11;"
      horiz-adv-x="256" d="M224 211.2L223.7248 64.7744H85.952L32 38.4V64.7744L32.2752 211.2H224zM129.312 111.8976C125.5616 111.8976 122.4384 110.784 119.9296 108.5568C117.4208 106.336 116.1664 103.488 116.1664 100.0192S117.4208 93.7024 119.9296 91.4752C122.4384 89.248 125.5616 88.1344 129.312 88.1344S136.192 89.248 138.7008 91.4752C141.2096 93.7024 142.464 96.5504 142.464 100.0192C142.464 103.488 141.2096 106.336 138.7008 108.5568C136.192 110.784 133.0688 111.8976 129.312 111.8976zM142.112 191.7696H116.864L119.8848 121.8176H139.0848L142.1056000000001 191.7696z" />
    <glyph glyph-name="clock"
      unicode="&#xEA12;"
      horiz-adv-x="256" d="M128 240C189.856 240 240 189.856 240 128S189.856 16 128 16S16 66.144 16 128S66.144 240 128 240zM128 220.8C76.7488 220.8 35.2 179.2512 35.2 128S76.7488 35.2 128 35.2S220.8 76.7488 220.8 128S179.2512 220.8 128 220.8zM137.6 192V137.6H172.8V118.4H118.4V192H137.6z" />
    <glyph glyph-name="cloture-tache"
      unicode="&#xEA13;"
      horiz-adv-x="256" d="M181.6064 204.8L204.8 163.6864V51.2H51.2V163.6864L74.3936 204.8H181.6064zM108.8 147.2H70.4V70.4H185.6V147.2H147.2V118.4H161.6L128 80L94.4 118.4H108.8V147.2zM174.528 185.6H87.872L76.8 166.4H185.6L174.528 185.6z" />
    <glyph glyph-name="confirmation"
      unicode="&#xEA14;"
      horiz-adv-x="256" d="M219.5648 204.8L236.8 187.84L97.12 51.2L19.2 128.0512L36.5056 144.9344L97.1776 85.0944z" />
    <glyph glyph-name="conflict"
      unicode="&#xEA15;"
      horiz-adv-x="256" d="M128 249.6C195.1552 249.6 249.6 195.1552 249.6 128S195.1552 6.4 128 6.4S6.4 60.8448 6.4 128S60.8448 249.6 128 249.6zM128 230.4C71.4432 230.4 25.6 184.5568 25.6 128S71.4432 25.6 128 25.6S230.4 71.4432 230.4 128S184.5568 230.4 128 230.4zM145.7024 201.76L137.728 136.8192H164.9408L110.304 54.24L118.272 119.1808H91.1232L145.7152000000001 201.76z" />
    <glyph glyph-name="contentieux"
      unicode="&#xEA16;"
      horiz-adv-x="256" d="M140.8 128V140.8H159.2L191.2 217.6064L146.1056 217.5936A19.251200000000004 19.251200000000004 0 0 0 134.4064 205.8944L134.4 44.8H211.2V19.2H198.4V32H57.6V19.2H44.8V44.8H121.6V205.888A19.251200000000004 19.251200000000004 0 0 0 109.888 217.6H64.8L96.8 140.8H115.2V128H108.8A19.200000000000003 19.200000000000003 0 0 0 90.7264 108.832L89.6 108.8H38.4A19.200000000000003 19.200000000000003 0 0 0 19.232 126.8736L19.2 128H12.8V140.8H31.2L63.2 217.6H44.8V230.4H109.8944A19.206400000000002 19.206400000000002 0 0 0 146.1056 230.4H211.2V217.6L192.8 217.6064L224.8 140.8H243.2V128H236.8A19.200000000000003 19.200000000000003 0 0 0 218.7264 108.832L217.6 108.8H166.4A19.200000000000003 19.200000000000003 0 0 0 147.232 126.8736L147.2 128H140.8zM96 128H32A6.400000000000001 6.400000000000001 0 0 1 37.6512 121.6448L38.4 121.6H89.6A6.400000000000001 6.400000000000001 0 0 1 95.9552 127.2512L96 128zM160 128A6.400000000000001 6.400000000000001 0 0 1 165.6512 121.6448L166.4 121.6H217.6A6.400000000000001 6.400000000000001 0 0 1 223.9552 127.2512L224 128H160zM192 202.88L166.1312 140.8H217.8688L192 202.88zM64 202.88L38.1312 140.8H89.8688L64 202.88zM128 230.4A6.400000000000001 6.400000000000001 0 1 1 128 217.6A6.400000000000001 6.400000000000001 0 0 1 128 230.4z" />
    <glyph glyph-name="copy"
      unicode="&#xEA17;"
      horiz-adv-x="256" d="M169.6 195.2V16H35.2V195.2H169.6zM150.4 176H54.4V35.2H150.4V176zM214.4 240V60.8H185.6V80H195.2V220.8H99.2V211.2H80V240H214.4z" />
    <glyph glyph-name="cross"
      unicode="&#xEA18;"
      horiz-adv-x="256" d="M213.1008 217.6L224 206.7008L142.0992 124.8L224 42.8992L213.1008 32L131.2 113.9008L49.2992 32L38.4 42.8992L120.3008 124.8064L38.4 206.7008L49.2992 217.6L131.2 135.6992z" />
    <glyph glyph-name="document"
      unicode="&#xEA19;"
      horiz-adv-x="256" d="M165.1648 224L211.2 178.72V25.6H44.8V224H165.1648zM148.0768 206.9952H62.016V42.6048H193.984V161.6448H148.0832V206.9952zM186.8608 178.6496L165.2928 199.872V178.6496H186.8608z" />
    <glyph glyph-name="double-arrow"
      unicode="&#xEA1A;"
      horiz-adv-x="256" d="M118.1632 211.2L198.4 131.2L118.1632 51.2L105.4784 64.9728L165.216 124.5312H19.2V144.5312H158.528L105.4784 197.4272L118.1632 211.2zM159.4304 211.2L236.8 131.2L159.4304 51.2L147.2 64.9728L211.2512000000001 131.2L147.2 197.4272L159.4304 211.2z" />
    <glyph glyph-name="checked"
      unicode="&#xEA1B;"
      horiz-adv-x="256" d="M128 249.6C195.1552 249.6 249.6 195.1552 249.6 128S195.1552 6.4 128 6.4S6.4 60.8448 6.4 128S60.8448 249.6 128 249.6zM128 230.4C71.4432 230.4 25.6 184.5568 25.6 128S71.4432 25.6 128 25.6S230.4 71.4432 230.4 128S184.5568 230.4 128 230.4zM184.7936 179.136L199.2064 166.464L113.0432 68.5056L63.072 127.5456L77.728 139.9488L113.3248 97.8944L184.7936 179.136z" />
    <glyph glyph-name="enrolement"
      unicode="&#xEA1C;"
      horiz-adv-x="256" d="M169.0496 236.8L217.6 188.2496L217.6064 115.6096A57.60000000000001 57.60000000000001 0 1 0 155.8016 19.1936L38.4 19.2V236.8H169.0496zM192 108.8A44.80000000000001 44.80000000000001 0 1 1 192 19.2A44.80000000000001 44.80000000000001 0 0 1 192 108.8zM160 179.2V224H51.2V32L144.1024 31.9936A57.60000000000001 57.60000000000001 0 0 0 204.8064 120.1728L204.8 179.2H160zM211.072 85.8496L220.2496 76.928L185.5104 41.2032L163.7504 63.7632L172.9664 72.6464L185.5488 59.5968L211.072 85.8496zM172.8 214.944V192H195.7504L172.8 214.944z" />
    <glyph glyph-name="error"
      unicode="&#xEA1D;"
      horiz-adv-x="256" d="M131.2 236.8C193.056 236.8 243.2 186.656 243.2 124.8S193.056 12.8 131.2 12.8S19.2 62.944 19.2 124.8S69.344 236.8 131.2 236.8zM205.1776 183.3152L72.6784 50.8352A93.91360000000002 93.91360000000002 0 0 1 131.2 30.4832C183.2896 30.4832 225.5168 72.7104 225.5168 124.8C225.5168 146.9056 217.9136 167.232 205.1776 183.3152zM131.2 219.1168C79.1104 219.1168 36.8832 176.8896 36.8832 124.8A93.95200000000001 93.95200000000001 0 0 1 59.8976 63.0592L192.9472 196.096A93.95200000000001 93.95200000000001 0 0 1 131.2 219.1168z" />
    <glyph glyph-name="esigna-alt-2"
      unicode="&#xEA1E;"
      horiz-adv-x="256" d="M96 105.6H160A60.80000000000002 60.80000000000002 0 0 0 220.7744 46.528L220.8 44.8V12.8H201.6V44.8A41.60000000000001 41.60000000000001 0 0 1 161.4912 86.3744L160 86.4H96A41.60000000000001 41.60000000000001 0 0 1 54.4256 46.2912L54.4 44.8V12.8H35.2V44.8A60.80000000000002 60.80000000000002 0 0 0 94.272 105.5744L96 105.6H160H96zM105.6 38.4V12.8H86.4V38.4H105.6zM169.6 38.4V12.8H150.4V38.4H169.6zM128 240A54.40000000000002 54.40000000000002 0 0 0 182.4 185.6V172.8A54.40000000000002 54.40000000000002 0 1 0 73.6 172.8V185.6A54.40000000000002 54.40000000000002 0 0 0 128 240zM128 220.8A35.2 35.2 0 0 1 92.8 185.6V172.8A35.2 35.2 0 0 1 163.2 172.8V185.6A35.2 35.2 0 0 1 128 220.8z" />
    <glyph glyph-name="esigna-alt"
      unicode="&#xEA1F;"
      horiz-adv-x="256" d="M128 236.8C188.0896 236.8 236.8 188.0896 236.8 128S188.0896 19.2 128 19.2S19.2 67.9104 19.2 128S67.9104 236.8 128 236.8zM146.624 102.4H109.376A19.776000000000007 19.776000000000007 0 0 1 89.6 82.624V39.9872C93.728 38.1888 98.0032 36.6656 102.4 35.4496V76.8H115.2V32.8448A96.88320000000002 96.88320000000002 0 0 1 140.8 32.8448V76.8H153.6V35.456C158.0032 36.672 162.2784 38.1888 166.4 39.9936V82.6176A19.776000000000007 19.776000000000007 0 0 1 146.624 102.4zM128 224C74.9824 224 32 181.0176 32 128C32 93.8048 49.8816 63.7824 76.8 46.7776V82.6176A32.576 32.576 0 0 0 109.376 115.2H146.624A32.576 32.576 0 0 0 179.2 82.624V46.784C206.1248 63.7888 224 93.8048 224 128C224 181.0176 181.0176 224 128 224zM128 192A32.00000000000001 32.00000000000001 0 0 0 160 160V145.0048H158.8352A32.012800000000006 32.012800000000006 0 0 0 97.1648 145.0048H96V160A32.00000000000001 32.00000000000001 0 0 0 128 192zM128 179.2A19.200000000000003 19.200000000000003 0 0 1 108.8 160V153.6A19.200000000000003 19.200000000000003 0 0 1 147.168 152.4736L147.2 153.6V160A19.200000000000003 19.200000000000003 0 0 1 128 179.2z" />
    <glyph glyph-name="esigna"
      unicode="&#xEA20;"
      horiz-adv-x="256" d="M236.8 204.8V38.4H19.2V204.8H236.8zM224 192H32V51.2H38.4V70.4A25.600000000000005 25.600000000000005 0 0 0 64 96H115.2A25.600000000000005 25.600000000000005 0 0 0 140.8 70.4V51.2H224V192zM115.2 83.2H64A12.800000000000002 12.800000000000002 0 0 1 51.2 70.4V51.2H64V64H76.8V51.2H102.4V64H115.2V51.2H128V70.4A12.800000000000002 12.800000000000002 0 0 1 115.2 83.2zM89.6 166.4A25.600000000000005 25.600000000000005 0 0 0 115.2 140.8V134.4A25.600000000000005 25.600000000000005 0 1 0 64 134.4V140.8A25.600000000000005 25.600000000000005 0 0 0 89.6 166.4zM204.8 121.6V108.8H140.8V121.6H204.8zM89.6 153.6A12.800000000000002 12.800000000000002 0 0 1 76.8 140.8V134.4A12.800000000000002 12.800000000000002 0 1 1 102.4 134.4V140.8A12.800000000000002 12.800000000000002 0 0 1 89.6 153.6zM204.8 144V131.2H140.8V144H204.8zM204.8 166.4V153.6H140.8V166.4H204.8z" />
    <glyph glyph-name="etablissement"
      unicode="&#xEA21;"
      horiz-adv-x="256" d="M217.6 236.8V19.2H38.4V236.8H217.6zM204.7936 166.4H51.1936L51.2 32H204.8L204.7936 166.4zM96 70.4V51.2H70.4V70.4H96zM140.8 70.4V51.2H115.2V70.4H140.8zM185.6 108.8V51.2H160V108.8H185.6zM96 108.8V89.6H70.4V108.8H96zM140.8 108.8V89.6H115.2V108.8H140.8zM96 147.2V128H70.4V147.2H96zM140.8 147.2V128H115.2V147.2H140.8zM185.6 147.2V128H160V147.2H185.6zM204.8 224H51.2L51.1936 179.2H204.7936L204.8 224z" />
    <glyph glyph-name="eur"
      unicode="&#xEA22;"
      horiz-adv-x="256" d="M144.704 66.752C154.2016 66.752 163.008 68.5568 171.1168 72.1664V84.6656C162.6176 80.9984 154.0288 79.1616 145.3696 79.1616C135.9232 79.1616 128.3776 81.9008 122.7392 87.3728C117.1072 92.8448 113.2544 100.5824 111.2 110.5856H148.448V121.3376H109.8688L109.7024 125.0816V130.4192L109.8688 135.168H153.5360000000001V145.92H111.0336000000001C115.4240000000001 168.3072 126.4768000000001 179.5008 144.1984000000001 179.5008C151.3664000000001 179.5008 159.5584000000001 177.1136 168.7808000000001 172.3328L174.7008000000001 183.9168C165.536 189.3056 155.3664 192 144.192 192C131.0272 192 120.384 187.9424 112.2752 179.8336S99.0272 160.416 96.8576 145.9136H83.2V135.1616H95.872L95.6992 128.5056V124.832L95.8656 121.3312H83.2V110.5792H97.0304C99.5904 96.3072 104.8832 85.4272 112.9024 77.9584C120.9344 70.4832 131.5328 66.752 144.6976 66.752z" />
    <glyph glyph-name="eye"
      unicode="&#xEA23;"
      horiz-adv-x="256" d="M128.064 179.2C162.1888 179.2 196.3008000000001 161.0688 230.4000000000001 124.8C196.4992 88.5312 162.4576 70.4 128.2752000000001 70.4C94.0992 70.4 59.872 88.5312 25.6 124.8C59.7888 161.0688 93.9456 179.2 128.064 179.2zM128 170.1312C102.2912 170.1312 81.4528 149.8368 81.4528 124.8C81.4528 99.7632 102.2912 79.4688 128 79.4688C153.7088 79.4688 174.5472 99.7632 174.5472 124.8C174.5472 149.8368 153.7088 170.1312 128 170.1312zM128 142.9312C138.2848 142.9312 146.624 134.816 146.624 124.8C146.624 114.784 138.2848 106.6688 128 106.6688C117.7152 106.6688 109.376 114.784 109.376 124.8C109.376 134.816 117.7152 142.9312 128 142.9312z" />
    <glyph glyph-name="gid"
      unicode="&#xEA24;"
      horiz-adv-x="256" d="M172.224 76.8A32.576 32.576 0 0 0 204.8 44.224V25.6H217.6V12.8H70.4V25.6H83.2V44.224A32.576 32.576 0 0 0 115.776 76.8H172.224zM172.224 64H115.776A19.776000000000007 19.776000000000007 0 0 1 96 44.224V25.6H108.8V44.8H121.6V25.6H166.4V44.8H179.2V25.6H192V44.224A19.776000000000007 19.776000000000007 0 0 1 172.224 64zM236.8 236.8V121.6H192V134.4H224V224H32V134.4H47.4496L70.4 111.4496V134.4H96V121.6H83.2V80.5504L42.1504 121.6H19.2V236.8H236.8zM144 166.4C163.5136 166.4 179.2 149.92 179.2 129.7472V119.8528C179.2 99.68 163.5136 83.2 144 83.2S108.8 99.68 108.8 119.8528V129.7472C108.8 149.92 124.4864 166.4 144 166.4zM144 153.6C131.6992 153.6 121.6 142.9888 121.6 129.7472V119.8528C121.6 106.6112 131.6992 96 144 96S166.4 106.6112 166.4 119.8528V129.7472C166.4 142.9888 156.3008 153.6 144 153.6zM108.8 198.4V185.6H96V198.4H108.8zM134.4 198.4V185.6H121.6V198.4H134.4zM160 198.4V185.6H147.2V198.4H160z" />
    <glyph glyph-name="help-alt"
      unicode="&#xEA25;"
      horiz-adv-x="256" d="M128 236.8C188.0896 236.8 236.8 188.0896 236.8 128S188.0896 19.2 128 19.2S19.2 67.9104 19.2 128S67.9104 236.8 128 236.8zM136.704 83.4688H116.992V62.72H136.704V83.4688zM127.8976 193.28C115.5584 193.28 105.2928 189.5872 97.088 182.208C89.3632 175.2512 85.184 166.4576 84.5568 155.8208L84.48 153.8048L104.0896 153.8944C104.288 160.6336 106.4256 166.0224 110.4896 170.0672C114.56 174.112 119.8656 176.1344 126.4 176.1344C133.536 176.1344 139.2896 174.2336 143.6544 170.4192C148.0256 166.6112 150.208 161.632 150.208 155.4752C150.208 149.5744 146.6368 143.36 139.488 136.832L134.9184 132.8064C133.3312 131.3856 132.0576 130.176 131.104 129.184C126.56 124.32 123.1168 119.136 120.7488 113.6256A44.69120000000001 44.69120000000001 0 0 1 117.1712 98.4896L117.0944 96.2176H137.2032C137.6064 101.4336 138.8352 106.0224 140.9088 109.9776C142.784 113.5744 146.208 117.7152 151.1744 122.4L152.7104 123.8208L154.112 125.056C165.7152 135.6608 171.52 145.92 171.52 155.8272C171.52 166.496 167.3536 175.4048 159.0144 182.5536S140.3072 193.28 127.8976 193.28z" />
    <glyph glyph-name="help"
      unicode="&#xEA26;"
      horiz-adv-x="256" d="M128 240C189.856 240 240 189.856 240 128S189.856 16 128 16S16 66.144 16 128S66.144 240 128 240zM128 220.8C76.7488 220.8 35.2 179.2512 35.2 128S76.7488 35.2 128 35.2S220.8 76.7488 220.8 128S179.2512 220.8 128 220.8zM137.6832 89.952V70.4H117.9904V89.952H137.6832zM128.5568 181.44C138.3296 181.44 146.336 178.336 152.5568 172.1344C158.7904 165.9264 161.9008 157.9392 161.9008 148.16C161.9008 142.9376 160.7936 138.3424 158.5664 134.3616C156.5568 130.7776 153.1648 126.8736 148.3904 122.6368L146.7392 121.2096C142.9568 117.9968 140.4992 114.9568 139.3792 112.0832C138.2464 109.2032 137.6832 104.5312 137.6832 98.0672H117.9904C117.9904 106.8352 118.912 113.568 120.7552 118.2592C122.6048 122.9568 126.0672 127.4112 131.1424 131.6352L133.5424 133.6576C136.8896 136.5632000000001 139.136 138.8608000000001 140.2688 140.5440000000001C141.664 142.6048 142.3552 145.1456 142.3552 148.16C142.3552 152.192 141.0624 155.4944000000001 138.4768 158.0800000000001C135.8848 160.6656000000001 132.5824 161.9648 128.5568 161.9648C124.4864 161.9648 121.2736 160.7488 118.9248 158.3296C116.576 155.9104000000001 115.2384 152.3776 114.8992 147.7312H95.2064C95.6864 157.984 98.9568 166.1632 105.0176 172.2752000000001C111.0784 178.3872 118.9248 181.44 128.5568 181.44z" />
    <glyph glyph-name="info"
      unicode="&#xEA27;"
      horiz-adv-x="256" d="M128 240C189.856 240 240 189.856 240 128S189.856 16 128 16S16 66.144 16 128S66.144 240 128 240zM128 220.8C76.7488 220.8 35.2 179.2512 35.2 128S76.7488 35.2 128 35.2S220.8 76.7488 220.8 128S179.2512 220.8 128 220.8zM137.6 153.6V64H118.4V153.6H137.6zM137.6 192V172.8H118.4V192H137.6z" />
    <glyph glyph-name="initial"
      unicode="&#xEA28;"
      horiz-adv-x="256" d="M111.7632 211.2L192 128L111.7632 44.8L99.0784 59.1232L158.816 121.0688H12.8V141.8688H152.128L99.0784 196.8768L111.7632 211.2zM159.4304 211.2L236.8 128L159.4304 44.8L147.2 59.1232L211.2512000000001 128L147.2 196.8768L159.4304 211.2z" />
    <glyph glyph-name="italic"
      unicode="&#xEA29;"
      horiz-adv-x="256" d="M129.6512 44.8L134.4256 65.216H119.104L149.184 197.4144H161.6192L166.4 217.6H115.328L110.9952 197.4208H125.0944L94.5664 65.2096H81.5744L76.8 44.8z" />
    <glyph glyph-name="left-indent"
      unicode="&#xEA2A;"
      horiz-adv-x="256" d="M217.6 57.6V38.4H44.8V57.6H217.6zM217.6 96V76.8H112V96H217.6zM97.6 163.2V86.4L49.6 124.8L97.6 163.2zM217.6 134.4V115.2H112V134.4H217.6zM217.6 172.8V153.6H112V172.8H217.6zM217.6 211.2V192H44.8V211.2H217.6z" />
    <glyph glyph-name="line"
      unicode="&#xEA2B;"
      horiz-adv-x="256" d="M19.2 118.4H236.8V137.6H19.2z" />
    <glyph glyph-name="minus"
      unicode="&#xEA2C;"
      horiz-adv-x="256" d="M44.8 115.2H211.2V134.4H44.8z" />
    <glyph glyph-name="modification-REC"
      unicode="&#xEA2D;"
      horiz-adv-x="256" d="M114.2848 211.2C156.2496 211.2 190.8736 179.4432 195.936 138.4H224L182.8544 86.4L141.7152000000001 138.4H175.1488000000001C170.2528 167.9104 144.864 190.4 114.2848000000001 190.4C80.2048 190.4 52.5696 162.464 52.5696 128C52.5696 94.3232 78.9632 66.8736 111.9744 65.6448L114.2848 65.6V44.8C68.8448 44.8 32 82.048 32 128S68.8384 211.2 114.2848 211.2z" />
    <glyph glyph-name="modification"
      unicode="&#xEA2E;"
      horiz-adv-x="256" d="M101.5936 47.1168L42.7648 33.5424L56.3392 92.3712L101.5936 47.1232zM210.2016 155.7248L110.656 56.1728L92.5504 74.2784L192.1088 173.824L210.208 155.7248zM183.0528 182.88L83.4944 83.328L65.3952 101.4272L164.9536 200.9856L183.0528 182.88zM246.4128000000001 191.936L219.2576 164.7808L174.0096 210.0352L201.1584 237.1904L246.4064 191.936z" />
    <glyph glyph-name="ol"
      unicode="&#xEA2F;"
      horiz-adv-x="256" d="M40.5632 80.0832C44.7872 80.0832 48.1664 79.1104 50.6816 77.1712C53.2032 75.232 54.464 72.5888 54.464 69.248C54.464 65.1904 52.4608 62.208 48.448 60.3136C53.4656 58.5856 55.9744 55.3728 55.9744 50.688C55.9744 48.2688 55.3344 46.1312 54.0544 44.2624A12.48 12.48 0 0 0 48.7104 39.9296C46.4256 38.9056 43.8528 38.4 40.9856 38.4C32.0192 38.4 26.9504 42.272 25.7792 50.0224L25.6 51.6224L34.304 52.3456L34.368 51.0016C34.7392 47.1808 36.6336 45.2672 40.064 45.2672A5.747200000000001 5.747200000000001 0 0 1 44.3328 46.9312A5.6064 5.6064 0 0 1 45.9776 51.0336A5.248000000000001 5.248000000000001 0 0 1 44.2368 55.1296C43.0848 56.1728 41.44 56.6912 39.3152 56.6912L37.088 56.5632V63.936L38.496 64C40.288 64.16 41.7408 64.576 42.848 65.248A4.006400000000001 4.006400000000001 0 0 1 44.9152 68.8704A3.8208 3.8208 0 0 1 43.52 71.9296A5.248000000000001 5.248000000000001 0 0 1 40.0064 73.1072C37.1776 73.1072 35.6032 71.6864 35.2896 68.8512L35.2256 67.7184L26.8224 68.4416L27.008 69.9648C27.52 72.9088 28.8128 75.2576 30.912 77.0112C33.344 79.0592 36.5632 80.0832 40.5632 80.0832zM230.4 71.8912V49.9264H78.2656V71.8976H230.4zM41.4912 146.0096C45.824 146.0096 49.2352 145.0048 51.7184 142.9952C54.2016 140.9792 55.4496 138.1952 55.4496 134.6368C55.4496 132.5824 54.9888 130.7968 54.08 129.2736A15.7504 15.7504 0 0 0 50.4064 125.1264C48.8704 123.8848 46.6304 122.3744 43.6928 120.5824C39.4496 117.9456 36.8896 115.3344 36.0128 112.7488L35.7568 111.7888H47.8336V117.0112H55.9232L55.4496 104.864H26.3168L26.368 106.944A23.424000000000003 23.424000000000003 0 0 0 27.584 113.7408A18.560000000000002 18.560000000000002 0 0 0 31.6096 120.1408C33.0752 121.6896 35.0912 123.4752 37.6576 125.4912L39.6864 127.0464A21.056000000000004 21.056000000000004 0 0 1 43.9744 131.0976C44.9536 132.4032 45.4464 133.7408 45.4464 135.1168C45.4464 136.48 45.056 137.504 44.2752 138.2016C43.5008 138.9056 42.3872 139.2512 40.9344 139.2512C39.0592 139.2512 37.6704 138.592 36.7552 137.28C36.0256 136.2304 35.5392 134.6496 35.2768 132.5376L35.1232 130.8544L26.8224 131.1744L26.912 132.9856C27.2576 137.0816 28.4928 140.192 30.6112 142.3296C33.0432 144.7872 36.6656 146.0096 41.4912 146.0096zM230.4 137.8112V115.8464H78.2656V137.8176H230.4zM46.3232 211.2V177.696H51.4688V170.7776H31.0912V177.696H36.5824V204.288H30.72V211.2H46.3232zM230.4 203.7376V181.7664H78.2656V203.7376H230.4z" />
    <glyph glyph-name="opposite-arrows"
      unicode="&#xEA30;"
      horiz-adv-x="256" d="M204.544 128L122.4704 51.2L109.088 61.9968L162.6624 112.1344H25.344V128H204.544zM139.4176 217.6L152.7936 206.8032L99.2192 156.6656H236.544V140.8H57.344L139.4176 217.6z" />
    <glyph glyph-name="pending"
      unicode="&#xEA31;"
      horiz-adv-x="256" d="M128 249.6C195.1552 249.6 249.6 195.1552 249.6 128S195.1552 6.4 128 6.4S6.4 60.8448 6.4 128S60.8448 249.6 128 249.6zM128 230.4C71.4432 230.4 25.6 184.5568 25.6 128S71.4432 25.6 128 25.6S230.4 71.4432 230.4 128S184.5568 230.4 128 230.4zM135.7824 192L192 131.2L135.7824 70.4L121.6 82.5216L157.728 121.6H70.4V140.8H157.728L121.6 179.8784L135.7824 192z" />
    <glyph glyph-name="perefisc"
      unicode="&#xEA32;"
      horiz-adv-x="256" d="M236.8 204.8V51.2H19.2V204.8H236.8zM224 192H32V64H224V192zM134.4 172.8C144.896 172.8 154.8352 169.1712 162.7584 162.688L164.224 161.4336L155.6992 151.8848A31.85280000000001 31.85280000000001 0 0 1 134.4 160A31.98720000000001 31.98720000000001 0 0 1 106.688 144H128V131.2H102.56A32.384 32.384 0 0 1 102.56 124.8H128V112L106.688 111.9936A31.98720000000001 31.98720000000001 0 0 1 134.4 96C141.7984 96 148.8 98.5152 154.4192 103.04L155.6992 104.1152L164.2112 94.56A44.8192 44.8192 0 0 0 92.544 112L76.8 112V124.8H89.7152A45.4528 45.4528 0 0 0 89.7152 131.2H76.8V144H92.544A44.8192 44.8192 0 0 0 134.4 172.8z" />
    <glyph glyph-name="plus-alt"
      unicode="&#xEA33;"
      horiz-adv-x="256" d="M6.4 249.6H249.6V6.4H6.4zM135.904 217.6V135.904H217.6V120.096H135.904V38.4H120.096V120.096H38.4V135.904H120.096V217.6z" />
    <glyph glyph-name="plus"
      unicode="&#xEA34;"
      horiz-adv-x="256" d="M135.904 217.6V135.904H217.6V120.096H135.904V38.4H120.096V120.096H38.4V135.904H120.096V217.6z" />
    <glyph glyph-name="point-menu-contextuel"
      unicode="&#xEA35;"
      horiz-adv-x="256" d="M57.6 124.8A16.2432 16.000000000000004 0 0 1 90.0864 124.8A16.2432 16.000000000000004 0 0 1 57.6 124.8M111.7568 124.8A16.2432 16.000000000000004 0 0 1 144.2432 124.8A16.2432 16.000000000000004 0 0 1 111.7568 124.8M165.9136 124.8A16.2432 16.000000000000004 0 0 1 198.4 124.8A16.2432 16.000000000000004 0 0 1 165.9136 124.8" />
    <glyph glyph-name="rejected"
      unicode="&#xEA36;"
      horiz-adv-x="256" d="M128 249.6C195.1552 249.6 249.6 195.1552 249.6 128S195.1552 6.4 128 6.4S6.4 60.8448 6.4 128S60.8448 249.6 128 249.6zM128 230.4C71.4432 230.4 25.6 184.5568 25.6 128S71.4432 25.6 128 25.6S230.4 71.4432 230.4 128S184.5568 230.4 128 230.4zM194.0032 137.6V118.4H68.4032V137.6H193.9968z" />
    <glyph glyph-name="right-indent"
      unicode="&#xEA37;"
      horiz-adv-x="256" d="M217.6 57.6V38.4H44.8V57.6H217.6zM217.6 96V76.8H112V96H217.6zM44.8 163.2L92.8 124.8L44.8 86.4V163.2zM217.6 134.4V115.2H112V134.4H217.6zM217.6 172.8V153.6H112V172.8H217.6zM217.6 211.2V192H44.8V211.2H217.6z" />
    <glyph glyph-name="search"
      unicode="&#xEA38;"
      horiz-adv-x="256" d="M108.8 227.2C152.9856 227.2 188.8 191.3856 188.8 147.2C188.8 128.5696 182.432 111.424 171.7504 97.824L224.3904 45.1904L210.8096 31.6096L158.176 84.2496A79.65440000000002 79.65440000000002 0 0 0 108.8 67.2C64.6144 67.2 28.8 103.0144 28.8 147.2S64.6144 227.2 108.8 227.2zM108.8 208A60.80000000000002 60.80000000000002 0 1 1 108.8 86.4A60.80000000000002 60.80000000000002 0 0 1 108.8 208z" />
    <glyph glyph-name="tab-close"
      unicode="&#xEA39;"
      horiz-adv-x="256" d="M141.312 211.9296V193.28H44.2432V37.8496H199.68V134.912H218.3296V19.2H25.6V211.9296H141.312zM232.8576 243.2L249.6 226.464L211.9296 188.8L249.6 151.136L232.864 134.4L195.2 172.0704L157.536 134.4L140.8 151.136L178.4576 188.8L140.8 226.464L157.536 243.2L195.2 205.5424L232.864 243.2z" />
    <glyph glyph-name="tab-management"
      unicode="&#xEA3A;"
      horiz-adv-x="256" d="M230.4 25.6H25.6V230.4H230.4V25.6zM147.2 209.92H46.08V46.08H209.9200000000001L209.9136 166.4H147.2V209.92z" />
    <glyph glyph-name="tab"
      unicode="&#xEA3B;"
      horiz-adv-x="256" d="M141.312 211.9296V193.28H44.2432V37.8496H199.68V134.912H218.3296V19.2H25.6V211.9296H141.312zM243.2 236.8V152.8704H224.5504V204.9664L134.4 114.816L121.216 128L211.3472000000001 218.1504H159.2640000000001V236.8H243.2z" />
    <glyph glyph-name="task-late"
      unicode="&#xEA3C;"
      horiz-adv-x="256" d="M128 240V220.8C76.7488 220.8 35.2 179.2512 35.2 128S76.7488 35.2 128 35.2C178.5792 35.2 219.7056 75.6608 220.7808 125.984L220.8 128H240C240 66.144 189.856 16 128 16S16 66.144 16 128C16 189.152 65.0112 238.8608 125.8944 239.9808L128 240zM137.6 192V137.6H172.8V118.4H118.4V192H137.6z" />
    <glyph glyph-name="task-ok"
      unicode="&#xEA3D;"
      horiz-adv-x="256" d="M128 240V220.8C76.7488 220.8 35.2 179.2512 35.2 128C35.2 77.4208 75.6608 36.2944 125.984 35.2192L128 35.2V16C66.144 16 16 66.144 16 128C16 189.152 65.0112 238.8608 125.8944 239.9808L128 240zM137.6 192V137.6H172.8V118.4H118.4V192H137.6z" />
    <glyph glyph-name="task"
      unicode="&#xEA3E;"
      horiz-adv-x="256" d="M240 240V16H16V240H240zM220.8 220.8H35.2V35.2H220.8V220.8zM178.816 179.584L192.384 166.016L108.8 82.4192L63.616 127.6032L77.184 141.184L108.8 109.568L178.816 179.584z" />
    <glyph glyph-name="tick"
      unicode="&#xEA3F;"
      horiz-adv-x="256" d="M193.6576 192L211.2 174.112L103.1936 64L44.8 123.5264L62.3424 141.4144L103.1936 99.7696z" />
    <glyph glyph-name="trash"
      unicode="&#xEA40;"
      horiz-adv-x="256" d="M166.4 236.8L170.6688 224H224V204.8H211.2V19.2H44.8V204.8H32V224H85.3312L89.6 236.8H166.4zM192 204.8H64V38.4H192V204.8zM115.2 179.2V64H96V179.2H115.2zM160 179.2V64H140.8V179.2H160z" />
    <glyph glyph-name="ul"
      unicode="&#xEA41;"
      horiz-adv-x="256" d="M40.96 81.6C52.9792 81.6 62.72 71.9296 62.72 60S52.9792 38.4 40.96 38.4S19.2 48.0704 19.2 60S28.9408 81.6 40.96 81.6zM236.8 70.7968V49.1968H84.48V70.8032H236.8zM40.96 146.4064C52.9792 146.4064 62.72 136.736 62.72 124.8064S52.9792 103.2064 40.96 103.2064S19.2 112.8704 19.2 124.8S28.9408 146.4 40.96 146.4zM236.8 135.5968V113.9968H84.48V135.5968H236.8zM40.96 211.2C52.9792 211.2 62.72 201.5296 62.72 189.6S52.9792 168 40.96 168S19.2 177.6704 19.2 189.6S28.9408 211.2 40.96 211.2zM236.8 200.3968V178.8032H84.48V200.3968H236.8z" />
    <glyph glyph-name="underlined"
      unicode="&#xEA42;"
      horiz-adv-x="256" d="M211.2 56.4096V38.4H51.2V56.4096H211.2zM121.1072 211.2V193.0112H104.1088V118.72L104.1408 116.1472C104.448 104.3712 106.9056 95.648 111.5072 89.9904C116.4416 83.9232 123.68 80.896 133.2288 80.896C142.9056 80.896 150.2784 83.8912 155.3344 89.888C160.0576 95.488 162.5792 104.1792 162.8928 115.9552L162.9248 118.528V193.0112H146.1248V211.2H202.4576V193.0112H184.512V116.4928L184.4672 113.4656C183.9872 97.5296 179.6608 85.2736 171.4752 76.6848C162.7904 67.5584 150.0416 62.9952 133.2352 62.9952C116.3072 62.9952 103.5904 67.5264 95.0912 76.5888C87.0912 85.12 82.8608 97.7728 82.3872 114.5536L82.3424 117.7536V193.0176H64.576V211.2H121.1072z" />
    <glyph glyph-name="upload"
      unicode="&#xEA43;"
      horiz-adv-x="256" d="M54.4 64V41.6H201.6V64H220.8V22.4H35.2V64H54.4zM137.6 65.4208V201.5232L193.248 166.1248L203.552 182.3168L128 230.4L52.448 182.3232L62.752 166.1248L118.4 201.5296V65.4208H137.6z" />
    <glyph glyph-name="warning-alt"
      unicode="&#xEA44;"
      horiz-adv-x="256" d="M128 236.8C188.0896 236.8 236.8 188.0896 236.8 128S188.0896 19.2 128 19.2S19.2 67.9104 19.2 128S67.9104 236.8 128 236.8zM137.6 83.2H118.4V64H137.6V83.2zM137.6 192H118.4V102.4H137.6V192z" />
    <glyph glyph-name="warning"
      unicode="&#xEA45;"
      horiz-adv-x="256" d="M128 240C189.856 240 240 189.856 240 128S189.856 16 128 16S16 66.144 16 128S66.144 240 128 240zM128 220.8C76.7488 220.8 35.2 179.2512 35.2 128S76.7488 35.2 128 35.2S220.8 76.7488 220.8 128S179.2512 220.8 128 220.8zM137.6 83.2H118.4V64H137.6V83.2zM137.6 192H118.4V102.4H137.6V192z" />
    <glyph glyph-name="arrow-left-long"
      unicode="&#xEA46;"
      horiz-adv-x="256" d="M120.832 214.1888L45.024 124.5888L120.832 34.9888L138.0032 49.0816L80.9472 116.5184H224.224V138.5344H85.92L138.0032 200.0896z" />
    <glyph glyph-name="download"
      unicode="&#xEA47;"
      horiz-adv-x="256" d="M54.4 64V41.6H201.6V64H220.8V22.4H35.2V64H54.4zM137.6 230.4V94.2976L193.248 129.696L203.552 113.504L128 65.4208L52.448 113.504L62.752 129.696L118.4 94.2912V230.4H137.6z" />
    <glyph glyph-name="arrow-left-alt"
      unicode="&#xEA48;"
      horiz-adv-x="256" d="M89.6 128L166.4 185.6V70.4z" />
  </font>
</defs>
</svg>
